<?xml version="1.0" encoding="utf-8"?>
<!-- Generator: Adobe Illustrator 19.2.0, SVG Export Plug-In . SVG Version: 6.00 Build 0)  -->
<svg version="1.1" id="Layer_1" xmlns="http://www.w3.org/2000/svg" xmlns:xlink="http://www.w3.org/1999/xlink" x="0px" y="0px"
	 viewBox="0 0 600 150" style="enable-background:new 0 0 600 150;" xml:space="preserve">
<style type="text/css">
	.st0{fill:none;stroke:#FFFFFF;stroke-width:2;stroke-miterlimit:10;}
	.st1{fill:none;}
	.st2{enable-background:new    ;}
	.st3{fill:#FFFFFF;}
</style>
<line class="st0" x1="0" y1="112" x2="600" y2="111.5"/>
<line class="st0" x1="0" y1="25.7" x2="600" y2="25.2"/>
<line class="st0" x1="0" y1="47.3" x2="600" y2="46.8"/>
<line class="st0" x1="0" y1="68.6" x2="600" y2="68.1"/>
<line class="st0" x1="0" y1="90.4" x2="600" y2="89.9"/>
<rect x="-26.2" y="5.4" class="st1" width="86" height="88.4"/>
<rect x="16.7" y="31.6" class="st1" width="37.8" height="87.5"/>
<g class="st2">
	<path class="st3" d="M34.1,141.3V69.9c0.1-0.5,0.1-1.1,0.1-1.8c-0.1-0.7,0.1-1.3,0.3-1.9c0.6-1.6,1.8-3.3,3.7-5
		c1.8-1.7,3.9-3.1,6.3-4.2c1.6-0.7,3.1-1.2,4.3-1.5c1.3-0.3,2.7-0.4,4.4-0.4c1.8,0.1,3.3,0.3,4.4,0.7c1.1,0.4,2.1,1,3,1.9
		c1.1,1,1.8,2.2,1.9,3.7c0.1,1.5,0,2.8-0.5,4.1c-0.5,1.5-1.4,3-2.6,4.3c-1.3,1.4-2.8,2.6-4.5,3.7s-3.6,2-5.6,2.6s-4.1,1-6.2,1
		c-1.6,0-3-0.2-4.2-0.7s-2.3-1.1-3.2-1.9v66.8H34.1z"/>
</g>
<rect x="117.6" y="7.3" class="st1" width="95" height="45.5"/>
<rect x="54.5" y="27.2" class="st1" width="50" height="82.6"/>
<g class="st2">
	<path class="st3" d="M83.9,59.8c0.1-0.7,0.2-1.2,0.3-1.7c0.1-0.5,0.3-0.9,0.4-1.2c0.4-1.2,1-2.2,1.8-3.1c0.7-0.9,1.5-1.7,2.4-2.4
		c0.8-0.7,1.7-1.3,2.5-1.8s1.5-0.9,2.1-1.2c1.3-0.7,2.9-1.2,4.8-1.7c1.9-0.4,3.9-0.6,5.8-0.4c1.1,0.1,2.4,0.3,3.9,0.8
		c1.5,0.4,2.7,1.3,3.6,2.7c0.6,1,1,1.8,1.2,2.5s0.2,1.7,0,3c-0.1,0.7-0.3,1.4-0.7,2.1c-0.3,0.7-0.6,1.3-0.8,1.7
		c-1.1,1.9-2.3,3.5-3.8,4.9c-1.5,1.4-2.8,2.4-4.1,3.2c-1.3,0.7-2.8,1.2-4.4,1.6C97.2,69,95.3,69.1,93,69c-0.4-0.1-1-0.1-1.7-0.2
		s-1.4-0.2-2.1-0.5c-0.7-0.2-1.4-0.5-2.1-0.8s-1.3-0.8-1.8-1.3v67.3h-1.6V59.8H83.9z M86.2,64.7c0.4,0.7,1.1,1.2,1.8,1.5
		c0.8,0.3,1.6,0.4,2.5,0.4s1.8-0.1,2.6-0.3c0.9-0.2,1.6-0.4,2.2-0.6c1-0.3,2-0.7,2.9-1.2c0.9-0.4,1.8-0.9,2.6-1.3
		c0.9-0.4,1.9-1,3-1.7s2.2-1.5,3.1-2.5c0.5-0.5,1-1,1.6-1.6s1-1.2,1.4-1.9s0.6-1.4,0.7-2.1s-0.1-1.6-0.5-2.4c-0.4-1-1.1-1.6-2.2-1.8
		c-1.1-0.3-2.1-0.3-3.1-0.3c-1,0.1-1.9,0.2-2.6,0.4s-0.9,0.3-0.6,0.2c-1.3,0.4-2.5,0.9-3.6,1.4s-2.1,1-3,1.5
		c-0.6,0.3-1.1,0.6-1.6,0.9c-0.4,0.3-0.9,0.6-1.3,0.8c-0.4,0.3-0.8,0.6-1.3,0.9c-0.4,0.3-1,0.7-1.6,1.2c-0.7,0.5-1.3,1.1-1.8,1.8
		c-0.6,0.7-1,1.5-1.3,2.3s-0.5,1.6-0.6,2.3C85.7,63.3,85.8,64.1,86.2,64.7z"/>
</g>
<rect x="23.4" y="5.3" class="st1" width="33.8" height="40.3"/>
<g class="st2">
	<path class="st3" d="M34.1,26.4v-3.9l22.8-9.6v4.2l-18,7.4l18,7.5v4.2L34.1,26.4z"/>
</g>
<rect x="79.5" y="7" class="st1" width="33.8" height="40.3"/>
<g class="st2">
	<path class="st3" d="M118.7,24.3v3.9l-22.8,9.6v-4.2l18-7.4l-18-7.5v-4.2L118.7,24.3z"/>
</g>
<rect x="66.3" y="7.6" class="st1" width="19.3" height="39"/>
<g class="st2">
	<path class="st3" d="M74.3,42.3l10-35.5h3.4l-9.9,35.5H74.3z"/>
</g>
<rect x="67.8" y="7.6" class="st1" width="19.3" height="39"/>
<g class="st2">
	<path class="st3" d="M67.8,42.3l10-35.5h3.4l-9.9,35.5H67.8z"/>
</g>
<rect x="130.6" y="55.6" class="st1" width="462.7" height="47.5"/>
<g class="st2">
	<path class="st3" d="M131.5,65.6c0.1-0.8,0.2-1.5,0.4-2.2s0.3-1.4,0.5-2.1s0.4-1.4,0.6-2.1s0.5-1.6,0.8-2.5v-0.2
		c-1.3,0.7-2.1,1.1-2.6,1.1s-0.8-0.2-0.8-0.6s0.2-0.9,0.5-1.5s0.8-1.2,1.3-1.7s1-1,1.6-1.3c0.5-0.3,1-0.4,1.3-0.1
		c0.4,0,0.7,0.1,0.9,0.2s0.5,0.3,0.8,0.6c0.7-0.6,1.4-1,2-1.4c0.6-0.3,1.4-0.5,2.3-0.5c1.4,0,2.4,0.3,3.1,0.9s1.2,1.6,1.5,3
		c0.5-0.5,1-1,1.5-1.5c0.4-0.5,0.9-0.8,1.4-1.2s1.1-0.6,1.7-0.8c0.6-0.2,1.3-0.3,2-0.3c0.6,0,1.2,0.2,1.8,0.7s1,1,1.3,1.5
		c0,0.1,0,0.4,0,0.8s0,0.7,0,0.9c0,1.1-0.1,2.1-0.4,3.1c-0.3,1-0.4,2-0.4,3c0,0.4,0.1,0.9,0.2,1.3c0.1,0.5,0.4,0.7,1,0.7
		c0.8,0,1.4-0.2,2-0.5s1.2-0.7,1.7-1.1s1-0.9,1.4-1.5s0.8-1,1.2-1.5s0.7-0.8,1-1.1c0.3-0.3,0.6-0.5,0.9-0.5c0.2,0,0.5,0.1,0.7,0.3
		c0.3,0.2,0.4,0.4,0.4,0.6v0.1c0,0.1,0,0.1,0,0.1c-0.3,1-0.8,1.9-1.4,2.8c-0.6,0.9-1.3,1.6-2.1,2.3c-0.8,0.7-1.6,1.2-2.6,1.6
		s-2,0.6-3,0.6s-1.8-0.1-2.5-0.4s-1.2-0.9-1.6-1.9c0-0.1,0-0.3,0-0.6c0-0.3,0-0.5,0-0.6c0-1.2,0.1-2.3,0.4-3.4s0.4-2.2,0.4-3.3
		c0-0.1,0-0.3,0-0.6c0-0.3,0-0.5,0-0.6c-0.1-0.2-0.3-0.2-0.6-0.2s-0.5,0-0.7,0c-0.7,0-1.3,0.2-1.9,0.7c-0.6,0.5-1.1,1.1-1.6,1.8
		c-0.5,0.7-0.9,1.5-1.3,2.4c-0.4,0.9-0.7,1.8-1,2.7s-0.5,1.7-0.7,2.5s-0.3,1.4-0.3,1.9l-0.5,0.5h-1.6c-0.3,0-0.4-0.1-0.4-0.4
		s0-0.5,0-0.7c0-0.8,0.1-1.5,0.2-2.3c0.1-0.8,0.2-1.5,0.4-2.3s0.3-1.5,0.4-2.3c0.1-0.8,0.2-1.5,0.2-2.3c0-0.3-0.1-0.5-0.1-0.8
		s-0.1-0.6-0.2-0.8s-0.2-0.5-0.4-0.6s-0.5-0.3-0.8-0.3c-0.5,0-1,0.1-1.5,0.3s-0.9,0.4-1.3,0.7c-0.4,0.3-0.7,0.7-1,1.1
		s-0.5,0.9-0.6,1.4l-2.8,9.1l-0.4,0.5c-0.4,0-0.6,0-0.7,0c-0.3,0-0.7,0-1.1-0.1c-0.4-0.1-0.5-0.4-0.5-0.9v-0.2H131.5z"/>
	<path class="st3" d="M161.3,78.5c0-2,0.4-3.9,1.3-5.6s2-3.3,3.4-4.6c1.4-1.4,2.9-2.6,4.6-3.7c1.7-1.1,3.4-2,5-2.9l1.4-4.4
		c-0.2,0.2-0.5,0.5-0.9,0.9c-0.5,0.4-0.9,0.9-1.4,1.4s-1,0.9-1.5,1.4s-0.8,0.7-1,0.9c-0.4,0.3-0.8,0.7-1.4,1.1
		c-0.5,0.4-1.1,0.8-1.7,1.1s-1.2,0.7-1.9,0.9c-0.6,0.2-1.2,0.4-1.7,0.4c-0.7,0-1.1-0.2-1.3-0.5s-0.3-0.8-0.3-1.4c0-0.5,0-1,0.1-1.5
		s0.1-1.1-0.1-1.6l1.8-5c0.3-0.3,0.6-0.7,0.8-1.3c0.3-0.6,0.5-1.2,0.8-1.8c0.3-0.6,0.5-1.1,0.8-1.5s0.6-0.7,1-0.7s0.7,0.1,1,0.3
		c0.3,0.2,0.4,0.5,0.4,0.9c0,0.3,0,0.6-0.1,0.8c-0.1,0.2-0.2,0.5-0.4,0.9c-0.4,0.8-0.8,1.6-1.2,2.4s-0.8,1.5-1.1,2.3
		s-0.6,1.5-0.8,2.3s-0.3,1.7-0.3,2.6h0.2c0.4-0.2,0.7-0.4,0.9-0.5s0.5-0.3,0.7-0.4c0.3-0.2,0.5-0.3,0.7-0.4c1.7-1.1,3.2-2.4,4.5-4
		s2.6-3.1,3.9-4.7c0.1-0.2,0.2-0.3,0.3-0.4S178,52,178,52c0.1,0,0.1-0.1,0.2-0.1s0.2,0,0.4,0c0.4,0,0.8,0.1,1.1,0.3
		c0.3,0.2,0.4,0.6,0.5,1.1c0,0.4,0,0.9-0.1,1.5s-0.2,1.1-0.4,1.7s-0.3,1.1-0.5,1.7c-0.2,0.5-0.3,1-0.4,1.3v0.7
		c0.1,0,0.2-0.1,0.4-0.1s0.4-0.1,0.5-0.1c0.2,0,0.7-0.2,1.5-0.5s1.8-0.6,2.7-1s1.9-0.7,2.7-1s1.4-0.5,1.6-0.6h0.1
		c0.2,0,0.4,0.1,0.6,0.2c0.2,0.2,0.3,0.3,0.3,0.6s-0.1,0.4-0.2,0.6s-0.3,0.3-0.5,0.4s-0.4,0.2-0.6,0.3c-0.2,0.1-0.4,0.2-0.6,0.2
		c-0.2,0.1-0.5,0.3-0.9,0.4c-0.4,0.2-0.9,0.4-1.4,0.6s-1.1,0.4-1.6,0.7s-1.1,0.5-1.6,0.7c-1.3,0.5-2.7,1.1-4.2,1.7l-4.1,15.6
		c-0.2,0.8-0.5,1.5-1.1,2.3s-1.1,1.6-1.8,2.3c-0.7,0.7-1.4,1.2-2.3,1.7c-0.8,0.4-1.7,0.6-2.5,0.6c-0.9,0-1.6-0.2-2.3-0.7
		c-0.6-0.5-1.1-1-1.5-1.7s-0.7-1.5-0.9-2.3C161.4,80,161.3,79.2,161.3,78.5z M163.8,78.5c0,0.4,0,0.9,0.1,1.4s0.2,1,0.4,1.5
		s0.5,0.9,0.8,1.2s0.8,0.5,1.3,0.5c0.7,0,1.3-0.2,1.9-0.6c0.6-0.4,1.1-0.9,1.5-1.5c0.5-0.6,0.8-1.3,1.1-1.9c0.3-0.7,0.6-1.3,0.8-1.8
		c0.1-0.4,0.2-0.9,0.4-1.6s0.4-1.3,0.5-2c0.2-0.7,0.3-1.2,0.4-1.8c0.1-0.5,0.2-0.8,0.2-0.9v-0.2l1.4-5.9c-1.3,0.4-2.5,1.1-3.8,2.1
		s-2.5,2.1-3.5,3.4c-1.1,1.3-1.9,2.7-2.6,4.1C164.2,75.7,163.8,77.1,163.8,78.5z"/>
	<path class="st3" d="M211.2,60.1c-0.3,0.1-0.5,0.2-0.8,0.2s-0.6,0-0.8,0s-0.6,0-0.8,0s-0.6,0.1-0.8,0.2c-0.5,0.1-0.9,0-1-0.1
		c-0.2-0.1-0.2-0.3-0.1-0.6c0.1-0.3,0.2-0.5,0.5-0.8s0.6-0.6,1-0.8s0.8-0.4,1.2-0.5s0.8-0.1,1.1,0c-0.2-0.6-0.1-1,0-1.5
		s0.6-0.6,1.1-0.6c0.3,0,0.5,0,0.8,0.1s0.4,0.2,0.5,0.4c0.5-0.3,1.1-0.8,1.9-1.4c0.8-0.7,1.6-1.4,2.4-2.1c0.8-0.7,1.6-1.3,2.3-1.9
		c0.7-0.5,1.2-0.8,1.4-0.8c0.1,0,0.2,0,0.4,0s0.3,0.1,0.5,0.1c0.2,0.1,0.3,0.1,0.4,0.2c0.1,0.1,0.2,0.2,0.2,0.4v2
		c-0.2,0.9-0.4,1.7-0.6,2.5c-0.2,0.8-0.4,1.5-0.5,2.3s-0.2,1.5-0.3,2.2c-0.1,0.8-0.1,1.5-0.1,2.4c0.5,0,1.1-0.1,1.8-0.3
		s1.4-0.5,2.1-0.8c0.7-0.3,1.4-0.6,2-1c0.6-0.3,1.1-0.6,1.5-0.8c0.1,0,0.2-0.1,0.4-0.3c0.2-0.2,0.5-0.4,0.7-0.6
		c0.3-0.2,0.5-0.4,0.7-0.6s0.4-0.3,0.4-0.4c0.1-0.1,0.2-0.1,0.5-0.3c0.3-0.1,0.4-0.2,0.4-0.2c0.1,0,0.2,0,0.4,0.1
		c0.1,0.1,0.2,0.2,0.3,0.4s0.2,0.3,0.2,0.4s0.1,0.2,0.1,0.3c0,0.3-0.1,0.6-0.4,0.9c-0.3,0.3-0.5,0.6-0.9,0.9
		c-0.3,0.3-0.7,0.5-1.1,0.8c-0.4,0.2-0.6,0.4-0.8,0.6c-0.3,0.1-0.7,0.3-1.3,0.6s-1.3,0.6-1.9,0.9c-0.7,0.3-1.3,0.6-1.9,0.9
		s-1,0.5-1.3,0.6c-0.1,0-0.2,0.1-0.4,0.1s-0.5,0.1-0.7,0.2c-0.3,0.1-0.5,0.2-0.7,0.2s-0.4,0.1-0.4,0.1c-0.3,0.1-0.5,0.3-0.6,0.5
		s-0.3,0.4-0.4,0.7s-0.3,0.4-0.5,0.6s-0.5,0.2-1,0.1c0,0-0.2-0.1-0.4-0.2s-0.4-0.2-0.4-0.3c-0.8-0.5-1.4-1-1.9-1.5s-1-0.9-1.5-1.4
		c-0.4-0.5-0.9-0.9-1.2-1.5C212.1,61.4,211.7,60.8,211.2,60.1z M214.1,58.2c0.2,0.5,0.4,0.9,0.6,1.4c0.2,0.4,0.4,0.9,0.7,1.2
		s0.6,0.7,1,1s0.8,0.5,1.3,0.5c0.1-0.5,0.1-1,0.2-1.7s0.2-1.3,0.3-2.1c0.1-0.7,0.3-1.4,0.4-2.1c0.2-0.7,0.4-1.3,0.6-1.9h-0.5
		c-0.5,0.3-1,0.7-1.4,1s-0.8,0.6-1.2,0.9s-0.7,0.6-1,0.8l-0.1,0.1c-0.1,0.1-0.1,0.1-0.1,0.1c0,0.1-0.2,0.2-0.4,0.3
		C214.3,58.1,214.2,58.2,214.1,58.2z M219.4,53.9c-0.1,0-0.1,0.1-0.1,0.2s0,0.2,0.1,0.2s0.2-0.1,0.2-0.2S219.5,53.9,219.4,53.9z"/>
	<path class="st3" d="M231,59.4c0.1-0.2,0.2-0.5,0.3-1s0.3-1,0.4-1.6s0.3-1.1,0.4-1.6c0.1-0.5,0.2-0.9,0.3-1.1
		c0.2-0.8,0.4-1.6,0.7-2.4c0.3-0.9,0.6-1.7,1.1-2.4s1.1-1.4,1.8-1.9s1.6-0.7,2.7-0.7c0.4,0,0.7,0.1,0.9,0.4s0.3,0.6,0.4,1
		c0,0.1,0,0.4,0,0.7c0,0.3,0,0.6,0,0.7c0,1.3-0.1,2.5-0.4,3.6c-0.3,1-0.7,2-1.2,2.9s-1.2,1.7-2,2.5s-1.7,1.6-2.7,2.4
		c0,0.1-0.1,0.3-0.1,0.5c-0.1,0.2-0.1,0.4-0.1,0.5V62c0,0.6,0.1,1,0.3,1.4s0.4,0.6,0.8,0.8s0.7,0.3,1.1,0.4s0.9,0.1,1.4,0.1
		c1.5,0,2.9-0.2,4.2-0.6s2.6-1.1,3.7-2c0.2-0.2,0.4-0.4,0.6-0.7s0.5-0.6,0.7-0.9c0.3-0.3,0.5-0.6,0.8-0.8s0.6-0.4,0.9-0.4
		c0.3,0,0.5,0.1,0.6,0.4s0.1,0.5,0.1,0.8c0,0.7-0.2,1.3-0.6,1.9s-1,1.2-1.6,1.6c-0.7,0.5-1.4,0.9-2.3,1.3c-0.9,0.4-1.7,0.7-2.6,0.9
		s-1.6,0.4-2.4,0.6c-0.8,0.1-1.4,0.2-1.9,0.2c-1.7,0-3-0.3-4.1-0.8s-1.9-1.6-2.3-3.3L231,59.4z M237.7,50.2
		c-0.6,0.6-1.1,1.1-1.5,1.5c-0.4,0.5-0.6,0.9-0.8,1.4s-0.4,1-0.5,1.6s-0.3,1.2-0.4,2c0.6-0.5,1.1-0.9,1.5-1.4s0.7-1,1-1.5
		s0.4-1,0.6-1.6C237.6,51.6,237.7,50.9,237.7,50.2z"/>
	<path class="st3" d="M248.6,60.3c0.2-1.6,0.5-3.1,1.1-4.5s1.2-2.7,2-3.7s1.5-1.8,2.3-2.4s1.5-0.7,2.1-0.5c0.2-0.1,0.3-0.2,0.4-0.3
		c0.1-0.1,0.2-0.2,0.3-0.2c0.1-0.1,0.2-0.1,0.3-0.2c0.1,0,0.3-0.1,0.5-0.1c0.4,0,0.8,0.1,1.2,0.4c0.3,0.3,0.6,0.6,0.9,1
		s0.5,0.8,0.6,1.3s0.2,0.9,0.2,1.2c0,0.4-0.2,0.7-0.5,0.8c-0.3,0.2-0.7,0.2-1.1,0.2c-0.3,0-0.5-0.1-0.7-0.2s-0.4-0.2-0.5-0.4
		s-0.3-0.3-0.4-0.5c-0.2-0.2-0.4-0.3-0.6-0.3l0,0h-0.1c0,0-0.1,0.1-0.2,0.2s-0.2,0.2-0.2,0.3c-0.7,0.8-1.3,1.5-1.8,2.1
		s-1.1,1.2-1.5,1.9s-0.8,1.3-1,2s-0.4,1.6-0.4,2.6c0,0.1,0,0.2,0,0.4s0,0.4,0,0.6s0,0.4,0,0.6s0,0.3,0,0.4c0.1,0.3,0.2,0.5,0.5,0.7
		s0.6,0.3,0.8,0.5c0.1,0,0.3,0,0.7,0s0.6,0,0.7,0c1.1,0,2.5-0.2,4-0.5c1.5-0.4,3.1-0.8,4.6-1.4s3-1.3,4.4-2.1
		c1.4-0.8,2.5-1.7,3.3-2.6c0.2-0.3,0.4-0.6,0.5-1s0.3-0.9,0.5-1.3s0.4-0.8,0.6-1.1c0.2-0.3,0.5-0.5,1-0.5c0.4,0,0.7,0.2,0.8,0.5
		c0.1,0.3,0.2,0.6,0.2,1c0,1-0.2,1.9-0.7,2.7c-0.5,0.8-1.1,1.5-1.8,2.2c-0.7,0.7-1.5,1.2-2.4,1.7s-1.7,0.9-2.5,1.3
		c-0.2,0.1-0.7,0.2-1.4,0.5c-0.7,0.3-1.5,0.6-2.4,0.9s-1.7,0.6-2.5,0.9s-1.4,0.5-1.8,0.7c-0.5,0.2-0.9,0.3-1.3,0.4
		c-0.3,0.1-0.7,0.1-0.9,0.2s-0.6,0.1-0.9,0.1c-0.3,0-0.6,0-1.1,0c-1.1,0-2.1-0.1-2.8-0.4s-1.3-0.7-1.8-1.2c-0.4-0.5-0.8-1.2-1-2
		C248.8,62.3,248.6,61.4,248.6,60.3z"/>
	<path class="st3" d="M272.9,63.1c0,0,0-0.1,0-0.3c0-0.2,0.1-0.4,0.1-0.6s0.1-0.4,0.1-0.6s0-0.3,0-0.4V61v-0.3l0.7-3
		c0.5-1.1,1.1-2.2,1.7-3.2s1.2-1.9,2-2.7s1.6-1.4,2.6-1.9s2.2-0.7,3.6-0.7c0.3,0,0.6,0.1,1.1,0.3s0.8,0.4,1.3,0.6s0.8,0.5,1.2,0.8
		c0.4,0.3,0.6,0.5,0.8,0.7c1-0.2,1.7-0.2,2.1-0.3c0.4,0,0.8,0,1.1,0c0.3,0,0.6-0.1,1-0.2s0.9-0.3,1.7-0.6c0.5-0.2,1-0.2,1.5-0.2
		c0.2,0,0.4,0.1,0.6,0.3c0.2,0.2,0.3,0.4,0.3,0.7c0,0.3-0.1,0.6-0.3,0.8c-0.2,0.3-0.5,0.4-0.8,0.5l-5.9,1.3l-0.5,0.2
		c0,1.7-0.4,3.3-1.1,4.8s-1.7,2.9-2.9,4c-1.2,1.2-2.6,2.1-4.1,2.7c-1.6,0.7-3.2,1-4.9,1c-0.1,0-0.3,0-0.6,0s-0.5,0-0.6,0
		c-0.7-0.3-1.2-0.8-1.4-1.5C273,64.4,272.9,63.7,272.9,63.1z M275.9,64c0,0.2,0.2,0.2,0.4,0.2c0.2,0,0.4,0,0.5,0
		c1.1,0,2.3-0.3,3.5-0.9s2.3-1.3,3.2-2.3c1-0.9,1.7-2,2.3-3.1s0.9-2.4,0.9-3.5c-1,0-2-0.1-3-0.3c-1-0.2-2-0.3-2.9-0.3l0,0l-3.9,4.1
		c-0.2,0.2-0.4,0.5-0.5,0.9s-0.2,0.8-0.3,1.2c-0.1,0.4-0.1,0.9-0.1,1.3s0,0.8,0,1.2c0,0.1,0,0.3,0,0.7S275.8,63.9,275.9,64z"/>
	<path class="st3" d="M295.2,65.8l1.6-9.4v-1.3l0.9-6.2c0.1-0.1,0.3-0.2,0.5-0.2s0.4,0,0.5,0c0.3,0,0.5,0.1,0.9,0.3s0.5,0.4,0.5,0.7
		v3.2c0.1-0.1,0.3-0.3,0.7-0.6s0.6-0.6,1-0.9s0.7-0.6,1-0.9s0.5-0.5,0.6-0.6c0.3-0.3,0.8-0.6,1.2-0.8s0.9-0.3,1.4-0.3
		c0.9,0,1.6,0.3,2.1,0.8s0.8,1.3,0.8,2.2c0,0.1,0,0.1,0,0.1V52v0.2l-1.8,8V64c1,0,2-0.2,3-0.6s2.1-0.9,3-1.5s1.9-1.3,2.7-2
		s1.6-1.5,2.2-2.2h0.2c0.2,0,0.4,0.1,0.5,0.2s0.2,0.3,0.2,0.5c0,0.7-0.2,1.4-0.7,2s-1,1.3-1.7,1.9s-1.5,1.2-2.4,1.7s-1.8,1-2.7,1.4
		s-1.8,0.7-2.6,0.9s-1.6,0.3-2.2,0.3s-1.1-0.1-1.4-0.3s-0.6-0.5-0.8-0.9s-0.3-0.8-0.3-1.2s-0.1-0.9-0.1-1.4v-0.6l1.8-9.1v-1.5
		c-0.8,0-1.5,0.3-2.2,1s-1.4,1.5-2,2.4s-1.1,1.9-1.5,2.9s-0.7,1.8-0.9,2.4c-0.1,0.2-0.2,0.6-0.3,1.2s-0.2,1.2-0.4,1.8
		s-0.2,1.2-0.3,1.8s-0.2,1-0.2,1.2s0,0.3-0.2,0.4s-0.3,0.2-0.5,0.2s-0.4,0.1-0.6,0.1s-0.4,0-0.5,0c-0.3,0-0.6,0-0.8-0.1
		s-0.4-0.3-0.4-0.7v-0.4H295.2z"/>
	<path class="st3" d="M328.5,59.6c-0.2,0.2-0.5,0.4-0.9,0.8s-0.9,0.8-1.4,1.2s-0.9,0.8-1.4,1.2s-0.8,0.6-0.9,0.7
		c-0.1,0-0.2,0.1-0.5,0.3s-0.6,0.4-1,0.6s-0.8,0.5-1.1,0.7s-0.7,0.4-0.9,0.5c-0.4,0.2-0.6,0.3-0.8,0.4s-0.4,0.1-0.7,0.1
		c-0.5,0-1-0.2-1.6-0.5s-0.8-0.8-0.8-1.4v-5.1l0.7-3.4c0.3-1.3,0.7-2.4,1.2-3.2s1-1.5,1.6-2.1s1.4-1,2.4-1.2s2-0.5,3.3-0.8
		c0.1,0,0.3-0.1,0.6-0.2s0.5-0.2,0.6-0.2h0.7c0.5,0,0.9,0.1,1.3,0.3s0.8,0.5,1.1,0.8l2.3-10c-0.1-0.3-0.1-0.8,0-1.4s0.2-1.2,0.4-1.9
		s0.4-1.2,0.7-1.6s0.6-0.7,1-0.7c0.5,0,0.8,0.2,1.1,0.5s0.4,0.8,0.3,1.3L333,50.7c-0.6,1.3-1,2.7-1.2,4s-0.4,2.7-0.4,4.2
		c0,0.7,0,1.3,0.1,2s0.3,1.3,0.5,1.8s0.6,1,1.1,1.3s1.1,0.5,1.8,0.5c1.7,0,3.3-0.3,4.9-0.9s3.1-1.4,4.3-2.5c0.1,0,0.1,0,0.1,0h0.1
		c0.3,0,0.5,0.1,0.7,0.2c0,0.1,0,0.2,0,0.3s0,0.2,0,0.3c0,0.5-0.2,1-0.6,1.4s-0.9,0.8-1.6,1.2s-1.3,0.7-2.1,1s-1.5,0.5-2.3,0.8
		s-1.5,0.4-2.1,0.5s-1.2,0.1-1.5,0.1c-1.1,0-2-0.2-2.7-0.5s-1.3-0.9-1.8-1.5s-0.9-1.4-1.1-2.3s-0.4-1.8-0.6-2.8h-0.1V59.6z
		 M319.4,57.8c0,0.2,0,0.5-0.1,0.9s-0.1,0.9-0.1,1.4s-0.1,1-0.1,1.5s-0.1,0.8-0.1,1c0,0.1,0,0.2,0,0.5s0,0.4,0,0.5
		c0.4,0,1-0.2,1.7-0.5s1.4-0.8,2.2-1.4s1.5-1.2,2.3-2s1.5-1.5,2.1-2.2s1.1-1.4,1.5-2.1s0.6-1.3,0.6-1.8c0-0.2-0.1-0.4-0.4-0.7
		s-0.5-0.5-0.8-0.8s-0.6-0.5-0.9-0.7s-0.6-0.3-0.8-0.3c-0.7-0.2-1.4-0.2-2.3,0.2s-1.7,0.8-2.4,1.5s-1.4,1.4-1.8,2.3
		S319.2,56.9,319.4,57.8z"/>
	<path class="st3" d="M365.6,65.6c0.1-0.8,0.2-1.5,0.4-2.2s0.3-1.4,0.5-2.1s0.4-1.4,0.6-2.1s0.5-1.6,0.8-2.5v-0.2
		c-1.3,0.7-2.1,1.1-2.6,1.1s-0.8-0.2-0.8-0.6s0.2-0.9,0.5-1.5s0.8-1.2,1.3-1.7s1-1,1.6-1.3s1-0.4,1.3-0.1c0.4,0,0.7,0.1,0.9,0.2
		s0.5,0.3,0.8,0.6c0.7-0.6,1.4-1,2-1.4s1.4-0.5,2.3-0.5c1.4,0,2.4,0.3,3.1,0.9s1.2,1.6,1.5,3c0.5-0.5,1-1,1.5-1.5s0.9-0.8,1.4-1.2
		s1.1-0.6,1.7-0.8s1.3-0.3,2-0.3c0.6,0,1.2,0.2,1.8,0.7s1,1,1.3,1.5c0,0.1,0,0.4,0,0.8s0,0.7,0,0.9c0,1.1-0.1,2.1-0.4,3.1
		s-0.4,2-0.4,3c0,0.4,0.1,0.9,0.2,1.3s0.4,0.7,1,0.7c0.8,0,1.4-0.2,2-0.5s1.2-0.7,1.7-1.1s1-0.9,1.4-1.5s0.8-1,1.2-1.5
		s0.7-0.8,1-1.1s0.6-0.5,0.9-0.5c0.2,0,0.5,0.1,0.7,0.3s0.4,0.4,0.4,0.6v0.1v0.1c-0.3,1-0.8,1.9-1.4,2.8s-1.3,1.6-2.1,2.3
		s-1.6,1.2-2.6,1.6s-2,0.6-3,0.6s-1.8-0.1-2.5-0.4s-1.2-0.9-1.6-1.9c0-0.1,0-0.3,0-0.6s0-0.5,0-0.6c0-1.2,0.1-2.3,0.4-3.4
		s0.4-2.2,0.4-3.3c0-0.1,0-0.3,0-0.6s0-0.5,0-0.6c-0.1-0.2-0.3-0.2-0.6-0.2s-0.5,0-0.7,0c-0.7,0-1.3,0.2-1.9,0.7s-1.1,1.1-1.6,1.8
		s-0.9,1.5-1.3,2.4s-0.7,1.8-1,2.7s-0.5,1.7-0.7,2.5s-0.3,1.4-0.3,1.9l-0.5,0.5h-1.6c-0.3,0-0.4-0.1-0.4-0.4s0-0.5,0-0.7
		c0-0.8,0.1-1.5,0.2-2.3s0.2-1.5,0.4-2.3s0.3-1.5,0.4-2.3s0.2-1.5,0.2-2.3c0-0.3-0.1-0.5-0.1-0.8s-0.1-0.6-0.2-0.8s-0.2-0.5-0.4-0.6
		s-0.5-0.3-0.8-0.3c-0.5,0-1,0.1-1.5,0.3s-0.9,0.4-1.3,0.7s-0.7,0.7-1,1.1s-0.5,0.9-0.6,1.4l-2.8,9.1l-0.4,0.5c-0.4,0-0.6,0-0.7,0
		c-0.3,0-0.7,0-1.1-0.1s-0.5-0.4-0.5-0.9v-0.2H365.6z"/>
	<path class="st3" d="M397.6,63.1c0,0,0-0.1,0-0.3s0.1-0.4,0.1-0.6s0.1-0.4,0.1-0.6s0-0.3,0-0.4V61v-0.3l0.7-3
		c0.5-1.1,1.1-2.2,1.7-3.2s1.2-1.9,2-2.7s1.6-1.4,2.6-1.9s2.2-0.7,3.6-0.7c0.3,0,0.6,0.1,1.1,0.3s0.8,0.4,1.3,0.6s0.8,0.5,1.2,0.8
		s0.6,0.5,0.8,0.7c1-0.2,1.7-0.2,2.1-0.3s0.8,0,1.1,0s0.6-0.1,1-0.2s0.9-0.3,1.7-0.6c0.5-0.2,1-0.2,1.5-0.2c0.2,0,0.4,0.1,0.6,0.3
		s0.3,0.4,0.3,0.7c0,0.3-0.1,0.6-0.3,0.8s-0.5,0.4-0.8,0.5l-5.9,1.3l-0.5,0.2c0,1.7-0.4,3.3-1.1,4.8s-1.7,2.9-2.9,4
		s-2.6,2.1-4.1,2.7s-3.2,1-4.9,1c-0.1,0-0.3,0-0.6,0s-0.5,0-0.6,0c-0.7-0.3-1.2-0.8-1.4-1.5S397.6,63.7,397.6,63.1z M400.6,64
		c0,0.2,0.2,0.2,0.4,0.2s0.4,0,0.5,0c1.1,0,2.3-0.3,3.5-0.9s2.3-1.3,3.2-2.3s1.7-2,2.3-3.1s0.9-2.4,0.9-3.5c-1,0-2-0.1-3-0.3
		s-2-0.3-2.9-0.3l0,0l-3.9,4.1c-0.2,0.2-0.4,0.5-0.5,0.9s-0.2,0.8-0.3,1.2s-0.1,0.9-0.1,1.3s0,0.8,0,1.2c0,0.1,0,0.3,0,0.7
		S400.6,63.9,400.6,64z"/>
	<path class="st3" d="M420.6,61.7l1.4-6.5c0.1-1,0.3-2.1,0.5-3.1s0.5-1.9,0.8-2.7s0.7-1.4,1.1-1.9s0.8-0.8,1.2-0.8
		c0.5,0,0.8,0.2,1,0.6s0.3,0.8,0.3,1.2v0.6l-3.2,10.3c-0.2,0.7-0.3,1.2-0.4,1.7s-0.1,1.1-0.1,1.7c0,0.1,0,0.2,0,0.4s0,0.3,0,0.5
		s0.1,0.3,0.2,0.4s0.2,0.2,0.3,0.2c0.3,0,0.7-0.1,1.1-0.2s0.8-0.3,1.2-0.5s0.8-0.4,1.1-0.6s0.6-0.4,0.8-0.5c0.7-0.4,1.4-0.9,2-1.4
		s1.2-1,1.7-1.5s1-1,1.5-1.6s1-1.2,1.5-1.9c0.2-0.3,0.3-0.7,0.6-1.2s0.5-1.2,0.7-1.9s0.5-1.4,0.8-2.1s0.5-1.4,0.8-2s0.5-1.1,0.8-1.5
		s0.5-0.6,0.8-0.6s0.5,0.1,0.7,0.2s0.3,0.3,0.3,0.4s0.1,0.4,0.2,0.6s0.1,0.4,0.2,0.6c0,0,0.1,0.1,0.2,0.1s0.2,0.1,0.3,0.1
		c0.3,0.1,0.5,0.2,0.5,0.2s0,0.1,0,0.2s0,0.1,0,0.1s0.2,0,0.5,0h0.1c0.4,0,0.9-0.1,1.4-0.2s1.1-0.1,1.7-0.2s1.2-0.2,2-0.3l0.9,2
		c-0.9,0.3-1.7,0.4-2.3,0.6s-1.2,0.2-1.8,0.3s-1.2,0.1-1.8,0s-1.4-0.1-2.3-0.1l-0.3,0.2c-0.6,1.5-1.2,2.8-1.8,4.1s-1.3,2.4-2.1,3.4
		s-1.7,2-2.7,3s-2.2,1.8-3.6,2.6c-0.9,0.5-1.8,1-2.7,1.4s-1.8,0.7-2.8,0.7c-0.6,0-1.1-0.1-1.5-0.3s-0.7-0.5-0.9-0.9
		s-0.4-0.8-0.4-1.3s-0.1-1-0.1-1.5v-1.1H420.6z"/>
	<path class="st3" d="M445.7,59.4c0.1-0.2,0.2-0.5,0.3-1s0.3-1,0.4-1.6s0.3-1.1,0.4-1.6s0.2-0.9,0.3-1.1c0.2-0.8,0.4-1.6,0.7-2.4
		s0.6-1.7,1.1-2.4s1.1-1.4,1.8-1.9s1.6-0.7,2.7-0.7c0.4,0,0.7,0.1,0.9,0.4s0.3,0.6,0.4,1c0,0.1,0,0.4,0,0.7s0,0.6,0,0.7
		c0,1.3-0.1,2.5-0.4,3.6s-0.7,2-1.2,2.9s-1.2,1.7-2,2.5s-1.7,1.6-2.7,2.4c0,0.1-0.1,0.3-0.1,0.5s-0.1,0.4-0.1,0.5V62
		c0,0.6,0.1,1,0.3,1.4s0.4,0.6,0.8,0.8s0.7,0.3,1.1,0.4s0.9,0.1,1.4,0.1c1.5,0,2.9-0.2,4.2-0.6s2.6-1.1,3.7-2
		c0.2-0.2,0.4-0.4,0.6-0.7s0.5-0.6,0.7-0.9s0.5-0.6,0.8-0.8s0.6-0.4,0.9-0.4s0.5,0.1,0.6,0.4s0.1,0.5,0.1,0.8c0,0.7-0.2,1.3-0.6,1.9
		s-1,1.2-1.6,1.6s-1.4,0.9-2.3,1.3s-1.7,0.7-2.6,0.9s-1.6,0.4-2.4,0.6S452.5,67,452,67c-1.7,0-3-0.3-4.1-0.8s-1.9-1.6-2.3-3.3
		L445.7,59.4z M452.4,50.2c-0.6,0.6-1.1,1.1-1.5,1.5s-0.6,0.9-0.8,1.4s-0.4,1-0.5,1.6s-0.3,1.2-0.4,2c0.6-0.5,1.1-0.9,1.5-1.4
		s0.7-1,1-1.5s0.4-1,0.6-1.6S452.3,50.9,452.4,50.2z"/>
	<path class="st3" d="M463.2,65.6c0.1-0.8,0.2-1.5,0.4-2.2s0.3-1.4,0.5-2.1s0.4-1.4,0.6-2.1s0.5-1.6,0.8-2.5v-0.2
		c-1.3,0.7-2.1,1.1-2.6,1.1s-0.8-0.2-0.8-0.6s0.2-0.9,0.5-1.5s0.8-1.2,1.3-1.7s1-1,1.6-1.3s1-0.4,1.3-0.1c0.4,0,0.7,0.1,0.9,0.2
		s0.5,0.3,0.8,0.6c0.7-0.6,1.4-1,2-1.4s1.4-0.5,2.3-0.5c1.4,0,2.4,0.3,3.1,0.9s1.2,1.6,1.5,3c0.5-0.5,1-1,1.5-1.5s0.9-0.8,1.4-1.2
		s1.1-0.6,1.7-0.8s1.3-0.3,2-0.3c0.6,0,1.2,0.2,1.8,0.7s1,1,1.3,1.5c0,0.1,0,0.4,0,0.8s0,0.7,0,0.9c0,1.1-0.1,2.1-0.4,3.1
		s-0.4,2-0.4,3c0,0.4,0.1,0.9,0.2,1.3s0.4,0.7,1,0.7c0.8,0,1.4-0.2,2-0.5s1.2-0.7,1.7-1.1s1-0.9,1.4-1.5s0.8-1,1.2-1.5
		s0.7-0.8,1-1.1s0.6-0.5,0.9-0.5c0.2,0,0.5,0.1,0.7,0.3s0.4,0.4,0.4,0.6v0.1v0.1c-0.3,1-0.8,1.9-1.4,2.8s-1.3,1.6-2.1,2.3
		s-1.6,1.2-2.6,1.6s-2,0.6-3,0.6s-1.8-0.1-2.5-0.4s-1.2-0.9-1.6-1.9c0-0.1,0-0.3,0-0.6s0-0.5,0-0.6c0-1.2,0.1-2.3,0.4-3.4
		s0.4-2.2,0.4-3.3c0-0.1,0-0.3,0-0.6s0-0.5,0-0.6c-0.1-0.2-0.3-0.2-0.6-0.2s-0.5,0-0.7,0c-0.7,0-1.3,0.2-1.9,0.7s-1.1,1.1-1.6,1.8
		s-0.9,1.5-1.3,2.4s-0.7,1.8-1,2.7s-0.5,1.7-0.7,2.5s-0.3,1.4-0.3,1.9l-0.5,0.5h-1.6c-0.3,0-0.4-0.1-0.4-0.4s0-0.5,0-0.7
		c0-0.8,0.1-1.5,0.2-2.3s0.2-1.5,0.4-2.3s0.3-1.5,0.4-2.3s0.2-1.5,0.2-2.3c0-0.3-0.1-0.5-0.1-0.8s-0.1-0.6-0.2-0.8s-0.2-0.5-0.4-0.6
		s-0.5-0.3-0.8-0.3c-0.5,0-1,0.1-1.5,0.3s-0.9,0.4-1.3,0.7s-0.7,0.7-1,1.1s-0.5,0.9-0.6,1.4l-2.8,9.1l-0.4,0.5c-0.4,0-0.6,0-0.7,0
		c-0.3,0-0.7,0-1.1-0.1s-0.5-0.4-0.5-0.9v-0.2H463.2z"/>
	<path class="st3" d="M495.2,59.4c0.1-0.2,0.2-0.5,0.3-1s0.3-1,0.4-1.6s0.3-1.1,0.4-1.6s0.2-0.9,0.3-1.1c0.2-0.8,0.4-1.6,0.7-2.4
		s0.6-1.7,1.1-2.4s1.1-1.4,1.8-1.9s1.6-0.7,2.7-0.7c0.4,0,0.7,0.1,0.9,0.4s0.3,0.6,0.4,1c0,0.1,0,0.4,0,0.7s0,0.6,0,0.7
		c0,1.3-0.1,2.5-0.4,3.6s-0.7,2-1.2,2.9s-1.2,1.7-2,2.5s-1.7,1.6-2.7,2.4c0,0.1-0.1,0.3-0.1,0.5s-0.1,0.4-0.1,0.5V62
		c0,0.6,0.1,1,0.3,1.4s0.4,0.6,0.8,0.8s0.7,0.3,1.1,0.4s0.9,0.1,1.4,0.1c1.5,0,2.9-0.2,4.2-0.6s2.6-1.1,3.7-2
		c0.2-0.2,0.4-0.4,0.6-0.7s0.5-0.6,0.7-0.9s0.5-0.6,0.8-0.8s0.6-0.4,0.9-0.4s0.5,0.1,0.6,0.4s0.1,0.5,0.1,0.8c0,0.7-0.2,1.3-0.6,1.9
		s-1,1.2-1.6,1.6s-1.4,0.9-2.3,1.3s-1.7,0.7-2.6,0.9s-1.6,0.4-2.4,0.6S502,67,501.5,67c-1.7,0-3-0.3-4.1-0.8s-1.9-1.6-2.3-3.3
		L495.2,59.4z M501.9,50.2c-0.6,0.6-1.1,1.1-1.5,1.5s-0.6,0.9-0.8,1.4s-0.4,1-0.5,1.6s-0.3,1.2-0.4,2c0.6-0.5,1.1-0.9,1.5-1.4
		s0.7-1,1-1.5s0.4-1,0.6-1.6S501.9,50.9,501.9,50.2z"/>
	<path class="st3" d="M512.2,65.8l1.6-9.4v-1.3l0.9-6.2c0.1-0.1,0.3-0.2,0.5-0.2s0.4,0,0.5,0c0.3,0,0.5,0.1,0.9,0.3s0.5,0.4,0.5,0.7
		v3.2c0.1-0.1,0.3-0.3,0.7-0.6s0.6-0.6,1-0.9s0.7-0.6,1-0.9s0.5-0.5,0.6-0.6c0.3-0.3,0.8-0.6,1.2-0.8s0.9-0.3,1.4-0.3
		c0.9,0,1.6,0.3,2.1,0.8s0.8,1.3,0.8,2.2c0,0.1,0,0.1,0,0.1V52v0.2l-1.8,8V64c1,0,2-0.2,3-0.6s2.1-0.9,3-1.5s1.9-1.3,2.7-2
		s1.6-1.5,2.2-2.2h0.2c0.2,0,0.4,0.1,0.5,0.2s0.2,0.3,0.2,0.5c0,0.7-0.2,1.4-0.7,2s-1,1.3-1.7,1.9s-1.5,1.2-2.4,1.7s-1.8,1-2.7,1.4
		s-1.8,0.7-2.6,0.9s-1.6,0.3-2.2,0.3s-1.1-0.1-1.4-0.3s-0.6-0.5-0.8-0.9s-0.3-0.8-0.3-1.2s-0.1-0.9-0.1-1.4v-0.6l2-9.2v-1.5
		c-0.8,0-1.5,0.3-2.2,1s-1.4,1.5-2,2.4s-1.1,1.9-1.5,2.9s-0.7,1.8-0.9,2.4c-0.1,0.2-0.2,0.6-0.3,1.2s-0.2,1.2-0.4,1.8
		s-0.2,1.2-0.3,1.8s-0.2,1-0.2,1.2s0,0.3-0.2,0.4s-0.3,0.2-0.5,0.2s-0.4,0.1-0.6,0.1s-0.4,0-0.5,0c-0.3,0-0.6,0-0.8-0.1
		s-0.4-0.3-0.4-0.7L512.2,65.8L512.2,65.8z"/>
	<path class="st3" d="M534.9,54.1c0.1-0.1,0.2-0.3,0.4-0.6s0.3-0.5,0.3-0.7v-0.1c0,0,0-0.1-0.1-0.1s-0.1-0.1-0.1-0.1h-0.8
		c-0.8,0.3-1.7,0.4-2.7,0.5s-2,0.1-3,0.1s-1.8-0.1-2.5-0.3s-1.1-0.3-1.2-0.5s0.1-0.4,0.7-0.7s1.7-0.5,3.4-0.8c0.1,0,0.3,0,0.6-0.1
		s0.7-0.1,1.1-0.2s0.8-0.1,1.1-0.2s0.6-0.1,0.7-0.1c0.1,0,0.4-0.1,0.8-0.1s0.8,0,1.2-0.1s0.8,0,1.2,0s0.7,0,0.8,0l0.2-0.3l3.7-6.1
		c0.1-0.2,0.4-0.4,0.7-0.5s0.6-0.2,0.8-0.2c0.4,0,0.7,0.2,0.8,0.5s0.2,0.6,0.2,1v0.1v0.1v0.2l-2.1,5v0.3c0.1-0.2,0.2-0.3,0.4-0.3
		s0.3,0,0.4,0c0.5,0,0.9,0.2,1.4,0.5s0.7,0.7,0.7,1.3c0,0.3-0.1,0.5-0.2,0.6s-0.3,0.3-0.6,0.4s-0.5,0.2-0.7,0.2s-0.5,0.1-0.7,0.1
		c-0.4,0-0.7,0-1.1-0.1s-0.7-0.1-1.1-0.1c-0.3,0-0.7,0.2-0.9,0.5s-0.5,0.8-0.8,1.4s-0.4,1.2-0.6,1.9s-0.3,1.4-0.4,2.1
		s-0.2,1.3-0.3,1.9s-0.1,1-0.1,1.4c0,0.1,0,0.4,0,0.8s0,0.6,0,0.8c0,0.2,0.1,0.4,0.2,0.5s0.3,0.3,0.4,0.4h1.1c1.3,0,2.5-0.3,3.7-0.8
		s2.4-1.2,3.5-1.9c0.1,0,0.2-0.2,0.4-0.4s0.5-0.5,0.8-0.8s0.5-0.5,0.8-0.7s0.4-0.3,0.5-0.3c0.2,0,0.4,0.1,0.6,0.3s0.3,0.5,0.3,0.7
		c0,0.6-0.2,1.2-0.6,1.7s-1,1.1-1.6,1.6s-1.4,0.9-2.3,1.3s-1.7,0.8-2.5,1s-1.6,0.5-2.3,0.7s-1.3,0.2-1.8,0.2c-0.4,0-0.9-0.1-1.4-0.2
		s-0.9-0.3-1.3-0.5s-0.7-0.6-0.9-0.9s-0.4-0.8-0.4-1.4v-5.2L534.9,54.1z"/>
</g>
<rect x="-243" y="-182" class="st1" width="296" height="38"/>
<g>
	<path class="st3" d="M291.7,107.7c-0.4,0-0.7-0.1-0.9-0.2c-0.3-0.1-0.5-0.3-0.7-0.6s-0.3-0.5-0.4-0.9c-0.1-0.3-0.1-0.7-0.1-1.1
		c0-0.5,0.1-0.9,0.2-1.3s0.3-0.7,0.5-1c0.2-0.3,0.5-0.6,0.8-0.8c0.3-0.2,0.7-0.5,1.2-0.7c0.2-0.1,0.4-0.2,0.7-0.3
		c0.3-0.1,0.5-0.2,0.7-0.3v-1.5c0-0.2,0-0.4,0-0.6c0-0.2-0.1-0.4-0.1-0.5c-0.1-0.1-0.2-0.3-0.3-0.3s-0.3-0.1-0.5-0.1
		c-0.1,0-0.3,0-0.4,0.1c-0.1,0.1-0.3,0.1-0.4,0.3c-0.1,0.1-0.2,0.3-0.3,0.5c-0.1,0.2-0.1,0.5-0.1,0.8v0.5h-1.6
		c0-0.2-0.1-0.4-0.1-0.6c0-0.2,0-0.4,0-0.5c0-0.4,0.1-0.8,0.2-1.1c0.1-0.3,0.4-0.6,0.6-0.8c0.3-0.2,0.6-0.4,0.9-0.5s0.8-0.2,1.2-0.2
		c0.6,0,1,0.1,1.4,0.2c0.4,0.1,0.7,0.3,0.9,0.6c0.2,0.3,0.4,0.6,0.5,0.9c0.1,0.4,0.1,0.8,0.1,1.3v8.6H294l-0.1-1
		c-0.2,0.3-0.5,0.6-0.9,0.8C292.6,107.6,292.1,107.7,291.7,107.7z M292.6,106c0.2,0,0.4,0,0.5-0.1c0.2-0.1,0.3-0.2,0.4-0.3V102
		c-0.1,0-0.2,0.1-0.4,0.2c-0.1,0.1-0.3,0.1-0.4,0.2c-0.1,0.1-0.3,0.2-0.4,0.3s-0.3,0.3-0.4,0.5c-0.1,0.2-0.2,0.4-0.3,0.6
		c-0.1,0.2-0.1,0.5-0.1,0.8c0,0.4,0.1,0.8,0.3,1.1S292.2,106,292.6,106z"/>
	<path class="st3" d="M301.4,92.4h2.1v3l-0.1,1.5l0,0c0.1-0.1,0.2-0.3,0.3-0.4c0.1-0.1,0.3-0.2,0.4-0.3c0.2-0.1,0.3-0.2,0.5-0.2
		c0.2-0.1,0.4-0.1,0.6-0.1c0.1,0,0.3,0,0.4,0s0.3,0.1,0.5,0.2c0.2,0.1,0.3,0.2,0.5,0.4c0.2,0.2,0.3,0.4,0.5,0.7s0.2,0.7,0.3,1.1
		c0.1,0.5,0.1,1,0.1,1.7v3.5c0,0.6,0,1.2-0.1,1.7s-0.2,0.8-0.3,1.1c-0.1,0.3-0.3,0.5-0.5,0.7c-0.2,0.2-0.4,0.3-0.5,0.4
		c-0.2,0.1-0.4,0.1-0.5,0.2c-0.2,0-0.3,0-0.4,0c-0.3,0-0.5,0-0.7-0.1c-0.2-0.1-0.4-0.2-0.6-0.3c-0.2-0.1-0.3-0.2-0.4-0.4
		c-0.1-0.1-0.2-0.3-0.3-0.4l-0.2,1.1h-1.6V92.4z M303.5,105.2c0,0.1,0.1,0.2,0.2,0.3c0.1,0.1,0.1,0.2,0.2,0.3
		c0.1,0.1,0.2,0.1,0.3,0.2c0.1,0,0.2,0.1,0.4,0.1c0.2,0,0.3,0,0.4-0.1c0.1-0.1,0.2-0.2,0.3-0.3c0.1-0.2,0.2-0.4,0.2-0.6
		c0.1-0.3,0.1-0.6,0.1-1v-4.4c0-0.4,0-0.8-0.1-1c-0.1-0.3-0.1-0.5-0.2-0.6c-0.1-0.2-0.2-0.3-0.3-0.3c-0.1-0.1-0.3-0.1-0.4-0.1
		c-0.3,0-0.5,0.1-0.6,0.2c-0.2,0.2-0.3,0.3-0.4,0.5V105.2z"/>
	<path class="st3" d="M309.6,92.4h2.1v15.1h-2.1V92.4z"/>
	<path class="st3" d="M316.8,107.7c-0.2,0-0.5,0-0.7-0.1s-0.5-0.1-0.7-0.2c-0.2-0.1-0.5-0.3-0.7-0.5c-0.2-0.2-0.4-0.5-0.5-0.9
		c-0.2-0.4-0.3-0.8-0.4-1.4c-0.1-0.5-0.1-1.2-0.1-1.9v-1.8c0-0.7,0-1.4,0.1-1.9c0.1-0.5,0.2-1,0.4-1.3c0.2-0.4,0.3-0.6,0.6-0.9
		c0.2-0.2,0.4-0.4,0.7-0.5c0.2-0.1,0.5-0.2,0.7-0.2s0.5-0.1,0.7-0.1c0.2,0,0.5,0,0.7,0c0.2,0,0.5,0.1,0.7,0.2
		c0.2,0.1,0.5,0.3,0.7,0.5c0.2,0.2,0.4,0.5,0.5,0.9c0.2,0.4,0.3,0.8,0.4,1.3c0.1,0.5,0.1,1.2,0.1,1.9v1.8c0,0.7,0,1.4-0.1,1.9
		c-0.1,0.5-0.2,1-0.4,1.4c-0.2,0.4-0.3,0.7-0.6,0.9c-0.2,0.2-0.4,0.4-0.7,0.5c-0.2,0.1-0.5,0.2-0.7,0.3
		C317.3,107.6,317,107.7,316.8,107.7z M316.8,106c0.2,0,0.3,0,0.5-0.1c0.1-0.1,0.2-0.3,0.3-0.5c0.1-0.2,0.1-0.5,0.2-0.9
		s0.1-0.8,0.1-1.3v-2.8c0-0.5,0-1-0.1-1.4s-0.1-0.7-0.2-0.9c-0.1-0.2-0.2-0.4-0.3-0.5c-0.1-0.1-0.3-0.1-0.5-0.1
		c-0.2,0-0.4,0-0.5,0.1c-0.1,0.1-0.2,0.3-0.3,0.5c-0.1,0.2-0.2,0.5-0.2,0.9c0,0.4-0.1,0.8-0.1,1.4v2.8c0,0.5,0,1,0.1,1.3
		c0,0.4,0.1,0.7,0.2,0.9c0.1,0.2,0.2,0.4,0.3,0.5C316.4,106,316.6,106,316.8,106z"/>
	<path class="st3" d="M323.5,108.3c0,0.5,0.1,0.8,0.3,1s0.5,0.3,0.8,0.3c0.2,0,0.3,0,0.4-0.1c0.1,0,0.3-0.1,0.4-0.3
		c0.1-0.1,0.2-0.3,0.3-0.5c0.1-0.2,0.1-0.5,0.1-0.9v-1.8c-0.2,0.2-0.4,0.5-0.7,0.6c-0.3,0.2-0.7,0.3-1.1,0.3c-0.1,0-0.3,0-0.4,0
		c-0.2,0-0.3-0.1-0.5-0.2c-0.2-0.1-0.4-0.2-0.5-0.4c-0.2-0.2-0.3-0.4-0.5-0.7c-0.1-0.3-0.3-0.7-0.3-1.1c-0.1-0.5-0.1-1-0.1-1.7v-3
		c0-0.6,0-1.1,0.1-1.6s0.2-0.8,0.3-1.1c0.1-0.3,0.3-0.5,0.5-0.7s0.4-0.3,0.5-0.4s0.4-0.1,0.5-0.2c0.2,0,0.3,0,0.5,0
		c0.3,0,0.5,0,0.7,0.1c0.2,0.1,0.4,0.2,0.6,0.3c0.2,0.1,0.3,0.3,0.4,0.4c0.1,0.1,0.2,0.3,0.3,0.4l0.2-1.1h1.6v11
		c0,0.6-0.1,1.2-0.2,1.7c-0.1,0.5-0.3,0.9-0.6,1.3c-0.3,0.4-0.6,0.6-1,0.8s-0.9,0.3-1.4,0.3c-0.4,0-0.7,0-1.1-0.1s-0.6-0.2-0.9-0.4
		s-0.4-0.4-0.6-0.7c-0.1-0.3-0.2-0.7-0.2-1.1c0-0.1,0-0.2,0-0.3c0-0.1,0-0.2,0.1-0.4H323.5z M324.7,105.4c0.1,0,0.3,0,0.4-0.1
		c0.1,0,0.2-0.1,0.3-0.2c0.1-0.1,0.2-0.2,0.2-0.3c0.1-0.1,0.1-0.2,0.2-0.3v-6.3c-0.1-0.2-0.2-0.4-0.4-0.6c-0.2-0.2-0.4-0.2-0.6-0.2
		c-0.2,0-0.3,0-0.4,0.1c-0.1,0.1-0.2,0.2-0.3,0.3c-0.1,0.2-0.2,0.4-0.2,0.6s-0.1,0.6-0.1,1v3.8c0,0.4,0,0.8,0.1,1s0.1,0.5,0.2,0.6
		c0.1,0.2,0.2,0.3,0.3,0.3C324.4,105.4,324.6,105.4,324.7,105.4z"/>
	<path class="st3" d="M335.3,107.7c-0.4,0-0.7-0.1-0.9-0.2c-0.3-0.1-0.5-0.3-0.7-0.6c-0.2-0.2-0.3-0.5-0.4-0.9
		c-0.1-0.3-0.1-0.7-0.1-1.1c0-0.5,0.1-0.9,0.2-1.3s0.3-0.7,0.5-1c0.2-0.3,0.5-0.6,0.8-0.8c0.3-0.2,0.7-0.5,1.2-0.7
		c0.2-0.1,0.4-0.2,0.7-0.3c0.3-0.1,0.5-0.2,0.7-0.3v-1.5c0-0.2,0-0.4,0-0.6c0-0.2-0.1-0.4-0.1-0.5c-0.1-0.1-0.2-0.3-0.3-0.3
		c-0.1-0.1-0.3-0.1-0.5-0.1c-0.1,0-0.3,0-0.4,0.1c-0.1,0.1-0.3,0.1-0.4,0.3c-0.1,0.1-0.2,0.3-0.3,0.5s-0.1,0.5-0.1,0.8v0.5h-1.6
		c0-0.2-0.1-0.4-0.1-0.6c0-0.2,0-0.4,0-0.5c0-0.4,0.1-0.8,0.2-1.1c0.1-0.3,0.4-0.6,0.6-0.8s0.6-0.4,0.9-0.5s0.8-0.2,1.2-0.2
		c0.6,0,1,0.1,1.4,0.2c0.4,0.1,0.7,0.3,0.9,0.6c0.2,0.3,0.4,0.6,0.5,0.9c0.1,0.4,0.1,0.8,0.1,1.3v8.6h-1.6l-0.1-1
		c-0.2,0.3-0.5,0.6-0.9,0.8S335.7,107.7,335.3,107.7z M336.2,106c0.2,0,0.3,0,0.5-0.1c0.2-0.1,0.3-0.2,0.4-0.3V102
		c-0.1,0-0.2,0.1-0.4,0.2c-0.1,0.1-0.3,0.1-0.4,0.2c-0.1,0.1-0.3,0.2-0.4,0.3c-0.1,0.1-0.3,0.3-0.4,0.5c-0.1,0.2-0.2,0.4-0.3,0.6
		s-0.1,0.5-0.1,0.8c0,0.4,0.1,0.8,0.3,1.1C335.5,105.9,335.8,106,336.2,106z"/>
	<path class="st3" d="M341.4,92.4h2.1v3l-0.1,1.5l0,0c0.1-0.1,0.2-0.3,0.3-0.4c0.1-0.1,0.3-0.2,0.4-0.3c0.2-0.1,0.3-0.2,0.5-0.2
		c0.2-0.1,0.4-0.1,0.6-0.1c0.1,0,0.3,0,0.4,0c0.2,0,0.3,0.1,0.5,0.2c0.2,0.1,0.3,0.2,0.5,0.4c0.2,0.2,0.3,0.4,0.5,0.7
		c0.1,0.3,0.2,0.7,0.3,1.1c0.1,0.5,0.1,1,0.1,1.7v3.5c0,0.6,0,1.2-0.1,1.7c-0.1,0.5-0.2,0.8-0.3,1.1c-0.1,0.3-0.3,0.5-0.5,0.7
		c-0.2,0.2-0.4,0.3-0.5,0.4c-0.2,0.1-0.4,0.1-0.5,0.2c-0.2,0-0.3,0-0.4,0c-0.3,0-0.5,0-0.7-0.1s-0.4-0.2-0.6-0.3s-0.3-0.2-0.4-0.4
		c-0.1-0.1-0.2-0.3-0.3-0.4l-0.2,1.1h-1.6V92.4z M343.5,105.2c0,0.1,0.1,0.2,0.2,0.3s0.1,0.2,0.2,0.3c0.1,0.1,0.2,0.1,0.3,0.2
		c0.1,0,0.2,0.1,0.4,0.1c0.2,0,0.3,0,0.4-0.1c0.1-0.1,0.2-0.2,0.3-0.3c0.1-0.2,0.2-0.4,0.2-0.6c0.1-0.3,0.1-0.6,0.1-1v-4.4
		c0-0.4,0-0.8-0.1-1s-0.1-0.5-0.2-0.6c-0.1-0.2-0.2-0.3-0.3-0.3c-0.1-0.1-0.3-0.1-0.4-0.1c-0.3,0-0.5,0.1-0.6,0.2s-0.3,0.3-0.4,0.5
		V105.2z"/>
	<path class="st3" d="M352.4,107.7c-0.2,0-0.5,0-0.7-0.1s-0.5-0.1-0.7-0.2c-0.2-0.1-0.5-0.3-0.7-0.5c-0.2-0.2-0.4-0.5-0.5-0.9
		c-0.2-0.4-0.3-0.8-0.4-1.4c-0.1-0.5-0.1-1.2-0.1-1.9v-1.8c0-0.7,0-1.4,0.1-1.9c0.1-0.5,0.2-1,0.4-1.3c0.2-0.4,0.3-0.6,0.6-0.9
		c0.2-0.2,0.4-0.4,0.7-0.5c0.2-0.1,0.5-0.2,0.7-0.2s0.5-0.1,0.7-0.1c0.2,0,0.5,0,0.7,0c0.2,0,0.5,0.1,0.7,0.2
		c0.2,0.1,0.5,0.3,0.7,0.5c0.2,0.2,0.4,0.5,0.5,0.9c0.2,0.4,0.3,0.8,0.4,1.3c0.1,0.5,0.1,1.2,0.1,1.9v1.8c0,0.7,0,1.4-0.1,1.9
		c-0.1,0.5-0.2,1-0.4,1.4c-0.2,0.4-0.3,0.7-0.6,0.9c-0.2,0.2-0.4,0.4-0.7,0.5c-0.2,0.1-0.5,0.2-0.7,0.3
		C352.9,107.6,352.7,107.7,352.4,107.7z M352.5,106c0.2,0,0.3,0,0.5-0.1c0.1-0.1,0.2-0.3,0.3-0.5c0.1-0.2,0.1-0.5,0.2-0.9
		s0.1-0.8,0.1-1.3v-2.8c0-0.5,0-1-0.1-1.4s-0.1-0.7-0.2-0.9c-0.1-0.2-0.2-0.4-0.3-0.5c-0.1-0.1-0.3-0.1-0.5-0.1
		c-0.2,0-0.4,0-0.5,0.1c-0.1,0.1-0.2,0.3-0.3,0.5c-0.1,0.2-0.2,0.5-0.2,0.9c0,0.4-0.1,0.8-0.1,1.4v2.8c0,0.5,0,1,0.1,1.3
		c0,0.4,0.1,0.7,0.2,0.9c0.1,0.2,0.2,0.4,0.3,0.5C352.1,106,352.3,106,352.5,106z"/>
	<path class="st3" d="M357.5,96.1h2.1v8.6c0,0.5,0.1,0.9,0.2,1c0.2,0.2,0.4,0.3,0.7,0.3c0.2,0,0.4-0.1,0.6-0.2
		c0.2-0.1,0.4-0.3,0.5-0.5v-9.3h2.1v11.4h-1.6l-0.2-1.2h0c-0.2,0.3-0.3,0.5-0.5,0.7c-0.2,0.2-0.4,0.3-0.6,0.4
		c-0.2,0.1-0.4,0.2-0.6,0.2c-0.2,0-0.4,0.1-0.6,0.1c-0.7,0-1.2-0.2-1.5-0.7s-0.5-1.2-0.5-2.1V96.1z"/>
	<path class="st3" d="M366.2,97.6h-0.9v-1.5h1.1l0.4-3h1.5v3h1.8v1.5h-1.8v7.3c0,0.2,0,0.4,0.1,0.6s0.1,0.3,0.2,0.4s0.2,0.1,0.3,0.2
		c0.1,0,0.2,0,0.3,0c0.2,0,0.4,0,0.5-0.1c0.2-0.1,0.3-0.1,0.5-0.2v1.2c-0.1,0.1-0.3,0.3-0.4,0.4c-0.1,0.1-0.3,0.2-0.4,0.2
		c-0.1,0.1-0.3,0.1-0.5,0.1c-0.2,0-0.3,0-0.5,0c-0.3,0-0.6,0-0.8-0.1c-0.3-0.1-0.5-0.2-0.7-0.4c-0.2-0.2-0.4-0.5-0.5-0.9
		c-0.1-0.4-0.2-0.9-0.2-1.5V97.6z"/>
	<path class="st3" d="M375.2,92.4h2.1v3l-0.1,1.5l0,0c0.1-0.1,0.2-0.3,0.3-0.4c0.1-0.1,0.3-0.2,0.4-0.3c0.2-0.1,0.3-0.2,0.5-0.2
		c0.2-0.1,0.4-0.1,0.6-0.1c0.1,0,0.3,0,0.4,0s0.3,0.1,0.5,0.2c0.2,0.1,0.3,0.2,0.5,0.4c0.2,0.2,0.3,0.4,0.5,0.7s0.2,0.7,0.3,1.1
		c0.1,0.5,0.1,1,0.1,1.7v3.5c0,0.6,0,1.2-0.1,1.7s-0.2,0.8-0.3,1.1c-0.1,0.3-0.3,0.5-0.5,0.7c-0.2,0.2-0.4,0.3-0.5,0.4
		c-0.2,0.1-0.4,0.1-0.5,0.2c-0.2,0-0.3,0-0.4,0c-0.3,0-0.5,0-0.7-0.1c-0.2-0.1-0.4-0.2-0.6-0.3c-0.2-0.1-0.3-0.2-0.4-0.4
		c-0.1-0.1-0.2-0.3-0.3-0.4l-0.2,1.1h-1.6V92.4z M377.3,105.2c0,0.1,0.1,0.2,0.2,0.3c0.1,0.1,0.1,0.2,0.2,0.3
		c0.1,0.1,0.2,0.1,0.3,0.2c0.1,0,0.2,0.1,0.4,0.1c0.2,0,0.3,0,0.4-0.1c0.1-0.1,0.2-0.2,0.3-0.3c0.1-0.2,0.2-0.4,0.2-0.6
		c0.1-0.3,0.1-0.6,0.1-1v-4.4c0-0.4,0-0.8-0.1-1c-0.1-0.3-0.1-0.5-0.2-0.6c-0.1-0.2-0.2-0.3-0.3-0.3c-0.1-0.1-0.3-0.1-0.4-0.1
		c-0.3,0-0.5,0.1-0.6,0.2c-0.2,0.2-0.3,0.3-0.4,0.5V105.2z"/>
	<path class="st3" d="M386.1,107.7c-0.5,0-0.9-0.1-1.3-0.3s-0.7-0.5-1-0.9c-0.3-0.4-0.5-0.9-0.6-1.5c-0.1-0.6-0.2-1.3-0.2-2.2v-2.2
		c0-0.7,0.1-1.3,0.2-1.9c0.1-0.5,0.2-1,0.4-1.3c0.2-0.4,0.4-0.6,0.6-0.8c0.2-0.2,0.5-0.4,0.7-0.5c0.2-0.1,0.5-0.2,0.7-0.2
		c0.2,0,0.5,0,0.7,0c0.4,0,0.7,0.1,1.1,0.2s0.7,0.3,0.9,0.6c0.3,0.3,0.5,0.6,0.6,1.1c0.2,0.5,0.2,1,0.2,1.7c0,0.2,0,0.5,0,0.7
		c0,0.2,0,0.5-0.1,0.7c0,0.2-0.1,0.5-0.1,0.7c0,0.2-0.1,0.4-0.1,0.6h-3.8v1.2c0,0.5,0,0.9,0.1,1.3c0,0.3,0.1,0.6,0.2,0.8
		c0.1,0.2,0.2,0.4,0.4,0.4c0.2,0.1,0.4,0.1,0.6,0.1c0.1,0,0.3,0,0.4-0.1c0.1-0.1,0.2-0.1,0.3-0.3c0.1-0.1,0.2-0.3,0.2-0.5
		c0.1-0.2,0.1-0.5,0.1-0.8v-0.4h1.8v0.4c0,1.1-0.3,1.9-0.8,2.4S387.1,107.7,386.1,107.7z M387.3,100.8c0-0.1,0-0.1,0-0.2
		c0-0.1,0-0.2,0-0.3c0-0.1,0-0.2,0-0.3c0-0.1,0-0.2,0-0.3c0-0.8-0.1-1.3-0.3-1.6c-0.2-0.3-0.4-0.5-0.8-0.5c-0.2,0-0.3,0-0.5,0.1
		c-0.1,0.1-0.3,0.2-0.3,0.4c-0.1,0.2-0.2,0.5-0.2,0.8c0,0.3-0.1,0.7-0.1,1.2v0.7H387.3z"/>
	<path class="st3" d="M393.7,107.7c-1,0-1.7-0.4-2.2-1.2c-0.5-0.8-0.8-2-0.8-3.6v-2.2c0-0.7,0.1-1.3,0.2-1.9c0.1-0.5,0.2-1,0.4-1.3
		c0.2-0.4,0.4-0.6,0.6-0.8c0.2-0.2,0.5-0.4,0.7-0.5c0.2-0.1,0.5-0.2,0.7-0.2s0.4,0,0.6,0c0.4,0,0.7,0.1,1.1,0.2
		c0.3,0.1,0.6,0.3,0.8,0.5c0.2,0.2,0.4,0.5,0.5,0.8c0.1,0.3,0.2,0.7,0.2,1.1c0,0.3,0,0.5,0,0.7c0,0.2-0.1,0.4-0.1,0.6h-1.7v-0.4
		c0-0.6-0.1-1-0.2-1.3c-0.1-0.3-0.4-0.5-0.7-0.5c-0.2,0-0.3,0-0.4,0.1c-0.1,0.1-0.2,0.2-0.3,0.4s-0.1,0.5-0.2,0.8
		c0,0.3-0.1,0.7-0.1,1.2v3.2c0,0.5,0,0.9,0,1.3s0.1,0.6,0.2,0.9s0.2,0.4,0.3,0.5c0.1,0.1,0.3,0.1,0.5,0.1c0.1,0,0.2,0,0.3-0.1
		s0.2-0.1,0.3-0.3c0.1-0.1,0.1-0.3,0.2-0.5c0-0.2,0.1-0.5,0.1-0.8v-0.4h1.8v0.4c0,1.1-0.2,1.9-0.7,2.4
		C395.4,107.4,394.6,107.7,393.7,107.7z"/>
	<path class="st3" d="M401.1,107.7c-0.2,0-0.5,0-0.7-0.1s-0.5-0.1-0.7-0.2c-0.2-0.1-0.5-0.3-0.7-0.5c-0.2-0.2-0.4-0.5-0.5-0.9
		c-0.2-0.4-0.3-0.8-0.4-1.4c-0.1-0.5-0.1-1.2-0.1-1.9v-1.8c0-0.7,0-1.4,0.1-1.9c0.1-0.5,0.2-1,0.4-1.3c0.2-0.4,0.3-0.6,0.6-0.9
		c0.2-0.2,0.4-0.4,0.7-0.5c0.2-0.1,0.5-0.2,0.7-0.2s0.5-0.1,0.7-0.1c0.2,0,0.5,0,0.7,0c0.2,0,0.5,0.1,0.7,0.2
		c0.2,0.1,0.5,0.3,0.7,0.5c0.2,0.2,0.4,0.5,0.5,0.9c0.2,0.4,0.3,0.8,0.4,1.3c0.1,0.5,0.1,1.2,0.1,1.9v1.8c0,0.7,0,1.4-0.1,1.9
		c-0.1,0.5-0.2,1-0.4,1.4c-0.2,0.4-0.3,0.7-0.6,0.9c-0.2,0.2-0.4,0.4-0.7,0.5c-0.2,0.1-0.5,0.2-0.7,0.3
		C401.6,107.6,401.4,107.7,401.1,107.7z M401.2,106c0.2,0,0.3,0,0.5-0.1c0.1-0.1,0.2-0.3,0.3-0.5c0.1-0.2,0.1-0.5,0.2-0.9
		s0.1-0.8,0.1-1.3v-2.8c0-0.5,0-1-0.1-1.4s-0.1-0.7-0.2-0.9c-0.1-0.2-0.2-0.4-0.3-0.5c-0.1-0.1-0.3-0.1-0.5-0.1
		c-0.2,0-0.4,0-0.5,0.1c-0.1,0.1-0.2,0.3-0.3,0.5c-0.1,0.2-0.2,0.5-0.2,0.9c0,0.4-0.1,0.8-0.1,1.4v2.8c0,0.5,0,1,0.1,1.3
		c0,0.4,0.1,0.7,0.2,0.9c0.1,0.2,0.2,0.4,0.3,0.5C400.8,106,401,106,401.2,106z"/>
	<path class="st3" d="M406.1,96.1h1.6l0.2,1.2v0c0.2-0.3,0.3-0.5,0.5-0.7c0.2-0.2,0.4-0.3,0.6-0.4c0.2-0.1,0.4-0.2,0.6-0.2
		c0.2,0,0.4-0.1,0.6-0.1c0.4,0,0.8,0.1,1.1,0.3c0.3,0.2,0.5,0.5,0.7,1c0.2-0.3,0.3-0.5,0.5-0.6s0.4-0.3,0.6-0.4s0.4-0.2,0.6-0.2
		c0.2,0,0.4-0.1,0.6-0.1c0.7,0,1.2,0.2,1.5,0.7c0.4,0.5,0.5,1.2,0.5,2.1v8.8h-2.1v-8.7c0-0.2,0-0.5-0.1-0.6c0-0.2-0.1-0.3-0.2-0.4
		c-0.1-0.1-0.2-0.2-0.3-0.2c-0.1,0-0.3-0.1-0.4-0.1c-0.2,0-0.4,0.1-0.6,0.2c-0.2,0.1-0.4,0.3-0.5,0.6c0,0,0,0.1,0,0.1s0,0.1,0,0.1
		v8.9h-2.1v-8.7c0-0.2,0-0.5-0.1-0.6c0-0.2-0.1-0.3-0.2-0.4c-0.1-0.1-0.2-0.2-0.3-0.2c-0.1,0-0.3-0.1-0.4-0.1
		c-0.2,0-0.4,0.1-0.6,0.2c-0.2,0.1-0.4,0.3-0.5,0.6v9.2h-2.1V96.1z"/>
	<path class="st3" d="M419.9,94.5c-0.4,0-0.7-0.1-0.9-0.3c-0.2-0.2-0.3-0.6-0.3-1c0-0.2,0-0.5,0.1-0.6c0.1-0.2,0.1-0.3,0.2-0.4
		c0.1-0.1,0.2-0.2,0.4-0.2c0.2,0,0.3-0.1,0.5-0.1c0.4,0,0.7,0.1,0.9,0.3c0.2,0.2,0.3,0.5,0.3,1c0,0.4-0.1,0.8-0.3,1
		C420.6,94.3,420.3,94.5,419.9,94.5z M418.8,96.1h2.1v11.4h-2.1V96.1z"/>
	<path class="st3" d="M423.1,96.1h1.6l0.2,1.2v0c0.2-0.3,0.3-0.5,0.5-0.7c0.2-0.2,0.4-0.3,0.6-0.4c0.2-0.1,0.4-0.2,0.6-0.2
		c0.2,0,0.4-0.1,0.6-0.1c0.7,0,1.2,0.2,1.5,0.7s0.5,1.2,0.5,2.1v8.8h-2.1v-8.7c0-0.5-0.1-0.9-0.2-1c-0.2-0.2-0.4-0.3-0.7-0.3
		c-0.2,0-0.4,0.1-0.6,0.2c-0.2,0.1-0.4,0.3-0.6,0.6v9.2h-2.1V96.1z"/>
	<path class="st3" d="M433.3,108.3c0,0.5,0.1,0.8,0.3,1s0.5,0.3,0.8,0.3c0.2,0,0.3,0,0.4-0.1c0.1,0,0.3-0.1,0.4-0.3
		c0.1-0.1,0.2-0.3,0.3-0.5c0.1-0.2,0.1-0.5,0.1-0.9v-1.8c-0.2,0.2-0.4,0.5-0.7,0.6c-0.3,0.2-0.7,0.3-1.1,0.3c-0.1,0-0.3,0-0.4,0
		c-0.2,0-0.3-0.1-0.5-0.2c-0.2-0.1-0.4-0.2-0.5-0.4c-0.2-0.2-0.3-0.4-0.5-0.7c-0.1-0.3-0.3-0.7-0.3-1.1c-0.1-0.5-0.1-1-0.1-1.7v-3
		c0-0.6,0-1.1,0.1-1.6c0.1-0.4,0.2-0.8,0.3-1.1c0.1-0.3,0.3-0.5,0.5-0.7c0.2-0.2,0.4-0.3,0.5-0.4c0.2-0.1,0.4-0.1,0.5-0.2
		c0.2,0,0.3,0,0.5,0c0.3,0,0.5,0,0.7,0.1c0.2,0.1,0.4,0.2,0.6,0.3c0.2,0.1,0.3,0.3,0.4,0.4c0.1,0.1,0.2,0.3,0.3,0.4l0.2-1.1h1.6v11
		c0,0.6-0.1,1.2-0.2,1.7c-0.1,0.5-0.3,0.9-0.6,1.3c-0.3,0.4-0.6,0.6-1,0.8c-0.4,0.2-0.9,0.3-1.4,0.3c-0.4,0-0.7,0-1.1-0.1
		s-0.6-0.2-0.9-0.4s-0.4-0.4-0.6-0.7c-0.1-0.3-0.2-0.7-0.2-1.1c0-0.1,0-0.2,0-0.3c0-0.1,0-0.2,0.1-0.4H433.3z M434.5,105.4
		c0.1,0,0.3,0,0.4-0.1c0.1,0,0.2-0.1,0.3-0.2c0.1-0.1,0.2-0.2,0.2-0.3s0.1-0.2,0.2-0.3v-6.3c-0.1-0.2-0.2-0.4-0.4-0.6
		c-0.2-0.2-0.4-0.2-0.6-0.2c-0.2,0-0.3,0-0.4,0.1c-0.1,0.1-0.2,0.2-0.3,0.3c-0.1,0.2-0.2,0.4-0.2,0.6c-0.1,0.3-0.1,0.6-0.1,1v3.8
		c0,0.4,0,0.8,0.1,1c0.1,0.3,0.1,0.5,0.2,0.6c0.1,0.2,0.2,0.3,0.3,0.3C434.2,105.4,434.3,105.4,434.5,105.4z"/>
	<path class="st3" d="M445,107.7c-0.4,0-0.7-0.1-0.9-0.2c-0.3-0.1-0.5-0.3-0.7-0.6c-0.2-0.2-0.3-0.5-0.4-0.9s-0.1-0.7-0.1-1.1
		c0-0.5,0.1-0.9,0.2-1.3s0.3-0.7,0.5-1c0.2-0.3,0.5-0.6,0.8-0.8c0.3-0.2,0.7-0.5,1.2-0.7c0.2-0.1,0.4-0.2,0.7-0.3
		c0.3-0.1,0.5-0.2,0.7-0.3v-1.5c0-0.2,0-0.4,0-0.6c0-0.2-0.1-0.4-0.1-0.5c-0.1-0.1-0.2-0.3-0.3-0.3c-0.1-0.1-0.3-0.1-0.5-0.1
		c-0.1,0-0.3,0-0.4,0.1c-0.1,0.1-0.3,0.1-0.4,0.3c-0.1,0.1-0.2,0.3-0.3,0.5c-0.1,0.2-0.1,0.5-0.1,0.8v0.5h-1.6
		c0-0.2-0.1-0.4-0.1-0.6c0-0.2,0-0.4,0-0.5c0-0.4,0.1-0.8,0.2-1.1c0.1-0.3,0.4-0.6,0.6-0.8c0.3-0.2,0.6-0.4,0.9-0.5s0.8-0.2,1.2-0.2
		c0.6,0,1,0.1,1.4,0.2c0.4,0.1,0.7,0.3,0.9,0.6c0.2,0.3,0.4,0.6,0.5,0.9c0.1,0.4,0.1,0.8,0.1,1.3v8.6h-1.6l-0.1-1
		c-0.2,0.3-0.5,0.6-0.9,0.8C445.9,107.6,445.5,107.7,445,107.7z M445.9,106c0.2,0,0.4,0,0.5-0.1c0.2-0.1,0.3-0.2,0.4-0.3V102
		c-0.1,0-0.2,0.1-0.4,0.2c-0.1,0.1-0.3,0.1-0.4,0.2c-0.1,0.1-0.3,0.2-0.4,0.3c-0.1,0.1-0.3,0.3-0.4,0.5s-0.2,0.4-0.3,0.6
		c-0.1,0.2-0.1,0.5-0.1,0.8c0,0.4,0.1,0.8,0.3,1.1C445.3,105.9,445.6,106,445.9,106z"/>
	<path class="st3" d="M453.9,96.1h2l0.8,6.2l0.2,2.3h0.1l0.2-2.3l1.1-6.2h1.8l1.1,6.2l0.3,2.3h0.1l0.1-2.3l0.7-6.2h2l-1.9,11.4h-1.9
		l-1.2-6.4l-0.3-1.8h-0.1l-0.2,1.8l-1.1,6.4h-2L453.9,96.1z"/>
	<path class="st3" d="M468.6,107.7c-0.5,0-0.9-0.1-1.3-0.3c-0.4-0.2-0.7-0.5-1-0.9c-0.3-0.4-0.5-0.9-0.6-1.5
		c-0.1-0.6-0.2-1.3-0.2-2.2v-2.2c0-0.7,0.1-1.3,0.2-1.9c0.1-0.5,0.2-1,0.4-1.3c0.2-0.4,0.4-0.6,0.6-0.8s0.5-0.4,0.7-0.5
		c0.2-0.1,0.5-0.2,0.7-0.2c0.2,0,0.5,0,0.7,0c0.4,0,0.7,0.1,1.1,0.2s0.7,0.3,0.9,0.6c0.3,0.3,0.5,0.6,0.6,1.1c0.2,0.5,0.2,1,0.2,1.7
		c0,0.2,0,0.5,0,0.7s0,0.5-0.1,0.7c0,0.2-0.1,0.5-0.1,0.7c0,0.2-0.1,0.4-0.1,0.6h-3.8v1.2c0,0.5,0,0.9,0.1,1.3
		c0,0.3,0.1,0.6,0.2,0.8c0.1,0.2,0.2,0.4,0.4,0.4c0.2,0.1,0.4,0.1,0.6,0.1c0.1,0,0.3,0,0.4-0.1c0.1-0.1,0.2-0.1,0.3-0.3
		c0.1-0.1,0.2-0.3,0.2-0.5c0.1-0.2,0.1-0.5,0.1-0.8v-0.4h1.8v0.4c0,1.1-0.3,1.9-0.8,2.4C470.3,107.4,469.6,107.7,468.6,107.7z
		 M469.8,100.8c0-0.1,0-0.1,0-0.2c0-0.1,0-0.2,0-0.3c0-0.1,0-0.2,0-0.3c0-0.1,0-0.2,0-0.3c0-0.8-0.1-1.3-0.3-1.6
		c-0.2-0.3-0.4-0.5-0.8-0.5c-0.2,0-0.3,0-0.5,0.1c-0.1,0.1-0.3,0.2-0.3,0.4c-0.1,0.2-0.2,0.5-0.2,0.8c0,0.3-0.1,0.7-0.1,1.2v0.7
		H469.8z"/>
	<path class="st3" d="M473.5,92.4h2.1v3l-0.1,1.5l0,0c0.1-0.1,0.2-0.3,0.3-0.4c0.1-0.1,0.3-0.2,0.4-0.3c0.2-0.1,0.3-0.2,0.5-0.2
		c0.2-0.1,0.4-0.1,0.6-0.1c0.1,0,0.3,0,0.4,0s0.3,0.1,0.5,0.2c0.2,0.1,0.3,0.2,0.5,0.4c0.2,0.2,0.3,0.4,0.5,0.7s0.2,0.7,0.3,1.1
		c0.1,0.5,0.1,1,0.1,1.7v3.5c0,0.6,0,1.2-0.1,1.7s-0.2,0.8-0.3,1.1c-0.1,0.3-0.3,0.5-0.5,0.7c-0.2,0.2-0.4,0.3-0.5,0.4
		c-0.2,0.1-0.4,0.1-0.5,0.2c-0.2,0-0.3,0-0.4,0c-0.3,0-0.5,0-0.7-0.1c-0.2-0.1-0.4-0.2-0.6-0.3c-0.2-0.1-0.3-0.2-0.4-0.4
		c-0.1-0.1-0.2-0.3-0.3-0.4l-0.2,1.1h-1.6V92.4z M475.6,105.2c0,0.1,0.1,0.2,0.2,0.3c0.1,0.1,0.1,0.2,0.2,0.3
		c0.1,0.1,0.2,0.1,0.3,0.2c0.1,0,0.2,0.1,0.4,0.1c0.2,0,0.3,0,0.4-0.1c0.1-0.1,0.2-0.2,0.3-0.3c0.1-0.2,0.2-0.4,0.2-0.6
		c0.1-0.3,0.1-0.6,0.1-1v-4.4c0-0.4,0-0.8-0.1-1c-0.1-0.3-0.1-0.5-0.2-0.6c-0.1-0.2-0.2-0.3-0.3-0.3c-0.1-0.1-0.3-0.1-0.4-0.1
		c-0.3,0-0.5,0.1-0.6,0.2c-0.2,0.2-0.3,0.3-0.4,0.5V105.2z"/>
	<path class="st3" d="M487.5,107.7c-0.1,0-0.3,0-0.4,0c-0.2,0-0.3-0.1-0.5-0.2c-0.2-0.1-0.4-0.2-0.5-0.4c-0.2-0.2-0.3-0.4-0.5-0.7
		c-0.1-0.3-0.3-0.7-0.3-1.1c-0.1-0.5-0.1-1-0.1-1.7v-3.6c0-0.6,0-1.2,0.1-1.6c0.1-0.4,0.2-0.8,0.4-1.1c0.1-0.3,0.3-0.5,0.5-0.7
		s0.4-0.3,0.6-0.4c0.2-0.1,0.4-0.1,0.5-0.1c0.2,0,0.3,0,0.4,0c0.2,0,0.4,0,0.6,0.1s0.3,0.1,0.5,0.2c0.1,0.1,0.3,0.2,0.4,0.3
		s0.2,0.2,0.3,0.3l0,0l-0.1-1.4v-3h2.1v15.1h-1.6l-0.2-1.1c-0.1,0.1-0.2,0.3-0.3,0.4c-0.1,0.1-0.3,0.3-0.4,0.4s-0.4,0.2-0.6,0.3
		C488,107.6,487.8,107.7,487.5,107.7z M488.2,106c0.1,0,0.3,0,0.4-0.1c0.1,0,0.2-0.1,0.3-0.2c0.1-0.1,0.2-0.2,0.2-0.3
		s0.1-0.2,0.2-0.3v-6.9c-0.1-0.2-0.2-0.4-0.4-0.6c-0.2-0.2-0.4-0.2-0.6-0.2c-0.2,0-0.3,0-0.4,0.1c-0.1,0.1-0.2,0.2-0.3,0.3
		c-0.1,0.2-0.2,0.4-0.2,0.6c-0.1,0.3-0.1,0.6-0.1,1v4.4c0,0.4,0,0.8,0.1,1c0.1,0.3,0.1,0.5,0.2,0.6c0.1,0.2,0.2,0.3,0.3,0.3
		C487.9,106,488.1,106,488.2,106z"/>
	<path class="st3" d="M496.3,107.7c-0.5,0-0.9-0.1-1.3-0.3s-0.7-0.5-1-0.9c-0.3-0.4-0.5-0.9-0.6-1.5c-0.1-0.6-0.2-1.3-0.2-2.2v-2.2
		c0-0.7,0.1-1.3,0.2-1.9c0.1-0.5,0.2-1,0.4-1.3c0.2-0.4,0.4-0.6,0.6-0.8c0.2-0.2,0.5-0.4,0.7-0.5c0.2-0.1,0.5-0.2,0.7-0.2
		c0.2,0,0.5,0,0.7,0c0.4,0,0.7,0.1,1.1,0.2s0.7,0.3,0.9,0.6c0.3,0.3,0.5,0.6,0.6,1.1c0.2,0.5,0.2,1,0.2,1.7c0,0.2,0,0.5,0,0.7
		c0,0.2,0,0.5-0.1,0.7c0,0.2-0.1,0.5-0.1,0.7c0,0.2-0.1,0.4-0.1,0.6h-3.8v1.2c0,0.5,0,0.9,0.1,1.3c0,0.3,0.1,0.6,0.2,0.8
		c0.1,0.2,0.2,0.4,0.4,0.4c0.2,0.1,0.4,0.1,0.6,0.1c0.1,0,0.3,0,0.4-0.1c0.1-0.1,0.2-0.1,0.3-0.3c0.1-0.1,0.2-0.3,0.2-0.5
		c0.1-0.2,0.1-0.5,0.1-0.8v-0.4h1.8v0.4c0,1.1-0.3,1.9-0.8,2.4S497.3,107.7,496.3,107.7z M497.5,100.8c0-0.1,0-0.1,0-0.2
		c0-0.1,0-0.2,0-0.3c0-0.1,0-0.2,0-0.3c0-0.1,0-0.2,0-0.3c0-0.8-0.1-1.3-0.3-1.6c-0.2-0.3-0.4-0.5-0.8-0.5c-0.2,0-0.3,0-0.5,0.1
		c-0.1,0.1-0.3,0.2-0.3,0.4c-0.1,0.2-0.2,0.5-0.2,0.8c0,0.3-0.1,0.7-0.1,1.2v0.7H497.5z"/>
	<path class="st3" d="M500.2,96.1h2.1l1.1,6.1l0.3,2.4h0.1l0.3-2.4l1.1-6.1h2l-2.6,11.4h-1.8L500.2,96.1z"/>
	<path class="st3" d="M511.2,107.7c-0.5,0-0.9-0.1-1.3-0.3s-0.7-0.5-1-0.9c-0.3-0.4-0.5-0.9-0.6-1.5c-0.1-0.6-0.2-1.3-0.2-2.2v-2.2
		c0-0.7,0.1-1.3,0.2-1.9c0.1-0.5,0.2-1,0.4-1.3c0.2-0.4,0.4-0.6,0.6-0.8c0.2-0.2,0.5-0.4,0.7-0.5c0.2-0.1,0.5-0.2,0.7-0.2
		c0.2,0,0.5,0,0.7,0c0.4,0,0.7,0.1,1.1,0.2s0.7,0.3,0.9,0.6c0.3,0.3,0.5,0.6,0.6,1.1c0.2,0.5,0.2,1,0.2,1.7c0,0.2,0,0.5,0,0.7
		c0,0.2,0,0.5-0.1,0.7c0,0.2-0.1,0.5-0.1,0.7c0,0.2-0.1,0.4-0.1,0.6h-3.8v1.2c0,0.5,0,0.9,0.1,1.3c0,0.3,0.1,0.6,0.2,0.8
		c0.1,0.2,0.2,0.4,0.4,0.4c0.2,0.1,0.4,0.1,0.6,0.1c0.1,0,0.3,0,0.4-0.1c0.1-0.1,0.2-0.1,0.3-0.3c0.1-0.1,0.2-0.3,0.2-0.5
		c0.1-0.2,0.1-0.5,0.1-0.8v-0.4h1.8v0.4c0,1.1-0.3,1.9-0.8,2.4S512.2,107.7,511.2,107.7z M512.4,100.8c0-0.1,0-0.1,0-0.2
		c0-0.1,0-0.2,0-0.3c0-0.1,0-0.2,0-0.3c0-0.1,0-0.2,0-0.3c0-0.8-0.1-1.3-0.3-1.6c-0.2-0.3-0.4-0.5-0.8-0.5c-0.2,0-0.3,0-0.5,0.1
		c-0.1,0.1-0.3,0.2-0.3,0.4c-0.1,0.2-0.2,0.5-0.2,0.8c0,0.3-0.1,0.7-0.1,1.2v0.7H512.4z"/>
	<path class="st3" d="M516.1,92.4h2.1v15.1h-2.1V92.4z"/>
	<path class="st3" d="M523.3,107.7c-0.2,0-0.5,0-0.7-0.1s-0.5-0.1-0.7-0.2c-0.2-0.1-0.5-0.3-0.7-0.5c-0.2-0.2-0.4-0.5-0.5-0.9
		c-0.2-0.4-0.3-0.8-0.4-1.4c-0.1-0.5-0.1-1.2-0.1-1.9v-1.8c0-0.7,0-1.4,0.1-1.9c0.1-0.5,0.2-1,0.4-1.3c0.2-0.4,0.3-0.6,0.6-0.9
		c0.2-0.2,0.4-0.4,0.7-0.5c0.2-0.1,0.5-0.2,0.7-0.2s0.5-0.1,0.7-0.1c0.2,0,0.5,0,0.7,0c0.2,0,0.5,0.1,0.7,0.2
		c0.2,0.1,0.5,0.3,0.7,0.5c0.2,0.2,0.4,0.5,0.5,0.9c0.2,0.4,0.3,0.8,0.4,1.3c0.1,0.5,0.1,1.2,0.1,1.9v1.8c0,0.7,0,1.4-0.1,1.9
		c-0.1,0.5-0.2,1-0.4,1.4c-0.2,0.4-0.3,0.7-0.6,0.9c-0.2,0.2-0.4,0.4-0.7,0.5c-0.2,0.1-0.5,0.2-0.7,0.3
		C523.8,107.6,523.5,107.7,523.3,107.7z M523.3,106c0.2,0,0.3,0,0.5-0.1c0.1-0.1,0.2-0.3,0.3-0.5c0.1-0.2,0.1-0.5,0.2-0.9
		s0.1-0.8,0.1-1.3v-2.8c0-0.5,0-1-0.1-1.4s-0.1-0.7-0.2-0.9c-0.1-0.2-0.2-0.4-0.3-0.5c-0.1-0.1-0.3-0.1-0.5-0.1
		c-0.2,0-0.4,0-0.5,0.1c-0.1,0.1-0.2,0.3-0.3,0.5c-0.1,0.2-0.2,0.5-0.2,0.9c0,0.4-0.1,0.8-0.1,1.4v2.8c0,0.5,0,1,0.1,1.3
		c0,0.4,0.1,0.7,0.2,0.9c0.1,0.2,0.2,0.4,0.3,0.5C523,106,523.1,106,523.3,106z"/>
	<path class="st3" d="M530.4,108.2v3h-2.1V96.1h1.6l0.2,1.2c0.1-0.2,0.2-0.3,0.3-0.5c0.1-0.2,0.3-0.3,0.5-0.4
		c0.2-0.1,0.4-0.2,0.6-0.3s0.5-0.1,0.7-0.1c0.1,0,0.3,0,0.4,0c0.2,0,0.3,0.1,0.5,0.2c0.2,0.1,0.3,0.2,0.5,0.4
		c0.2,0.2,0.3,0.4,0.5,0.7c0.1,0.3,0.2,0.7,0.3,1.1c0.1,0.5,0.1,1,0.1,1.7v3.5c0,0.6,0,1.2-0.1,1.7c-0.1,0.5-0.2,0.8-0.3,1.1
		c-0.1,0.3-0.3,0.5-0.5,0.7c-0.2,0.2-0.4,0.3-0.5,0.4s-0.4,0.1-0.5,0.2c-0.2,0-0.3,0-0.4,0c-0.4,0-0.8-0.1-1.1-0.3
		c-0.3-0.2-0.5-0.4-0.7-0.6L530.4,108.2z M530.4,105.2c0,0.1,0.1,0.2,0.2,0.3c0.1,0.1,0.1,0.2,0.2,0.3c0.1,0.1,0.2,0.1,0.3,0.2
		c0.1,0,0.2,0.1,0.4,0.1c0.2,0,0.3,0,0.4-0.1c0.1-0.1,0.2-0.2,0.3-0.3c0.1-0.2,0.2-0.4,0.2-0.6c0.1-0.3,0.1-0.6,0.1-1v-4.4
		c0-0.4,0-0.8-0.1-1s-0.1-0.5-0.2-0.6c-0.1-0.2-0.2-0.3-0.3-0.3c-0.1-0.1-0.3-0.1-0.4-0.1c-0.3,0-0.5,0.1-0.7,0.2
		c-0.2,0.2-0.3,0.3-0.4,0.6V105.2z"/>
	<path class="st3" d="M539.3,107.7c-0.5,0-0.9-0.1-1.3-0.3c-0.4-0.2-0.7-0.5-1-0.9c-0.3-0.4-0.5-0.9-0.6-1.5
		c-0.1-0.6-0.2-1.3-0.2-2.2v-2.2c0-0.7,0.1-1.3,0.2-1.9c0.1-0.5,0.2-1,0.4-1.3c0.2-0.4,0.4-0.6,0.6-0.8s0.5-0.4,0.7-0.5
		c0.2-0.1,0.5-0.2,0.7-0.2c0.2,0,0.5,0,0.7,0c0.4,0,0.7,0.1,1.1,0.2s0.7,0.3,0.9,0.6c0.3,0.3,0.5,0.6,0.6,1.1c0.2,0.5,0.2,1,0.2,1.7
		c0,0.2,0,0.5,0,0.7s0,0.5-0.1,0.7c0,0.2-0.1,0.5-0.1,0.7c0,0.2-0.1,0.4-0.1,0.6h-3.8v1.2c0,0.5,0,0.9,0.1,1.3
		c0,0.3,0.1,0.6,0.2,0.8c0.1,0.2,0.2,0.4,0.4,0.4c0.2,0.1,0.4,0.1,0.6,0.1c0.1,0,0.3,0,0.4-0.1c0.1-0.1,0.2-0.1,0.3-0.3
		c0.1-0.1,0.2-0.3,0.2-0.5c0.1-0.2,0.1-0.5,0.1-0.8v-0.4h1.8v0.4c0,1.1-0.3,1.9-0.8,2.4C541,107.4,540.3,107.7,539.3,107.7z
		 M540.4,100.8c0-0.1,0-0.1,0-0.2c0-0.1,0-0.2,0-0.3c0-0.1,0-0.2,0-0.3c0-0.1,0-0.2,0-0.3c0-0.8-0.1-1.3-0.3-1.6
		c-0.2-0.3-0.4-0.5-0.8-0.5c-0.2,0-0.3,0-0.5,0.1c-0.1,0.1-0.3,0.2-0.3,0.4c-0.1,0.2-0.2,0.5-0.2,0.8c0,0.3-0.1,0.7-0.1,1.2v0.7
		H540.4z"/>
	<path class="st3" d="M544.2,96.1h1.5l0.2,1.2c0.2-0.4,0.5-0.8,0.8-1s0.6-0.3,0.9-0.3c0.6,0,1,0.2,1.3,0.6c0.3,0.4,0.4,0.9,0.4,1.7
		c0,0.1,0,0.2,0,0.3s0,0.3-0.1,0.4c0,0.1-0.1,0.3-0.1,0.4c0,0.1-0.1,0.3-0.1,0.4h-1.5v-1.1c0-0.2,0-0.4,0-0.6c0-0.1-0.1-0.3-0.1-0.4
		c0-0.1-0.1-0.2-0.2-0.2s-0.1-0.1-0.2-0.1c-0.2,0-0.3,0.1-0.5,0.2c-0.1,0.1-0.3,0.3-0.4,0.5v9.4h-2.1V96.1z"/>
</g>
</svg>
